<?xml version="1.0" encoding="UTF-8" standalone="no"?>
<!DOCTYPE svg PUBLIC "-//W3C//DTD SVG 1.1//EN" "http://www.w3.org/Graphics/SVG/1.1/DTD/svg11.dtd">
<svg width="100%" height="100%" viewBox="0 0 1024 1024" version="1.1" xmlns="http://www.w3.org/2000/svg" xmlns:xlink="http://www.w3.org/1999/xlink" xml:space="preserve" xmlns:serif="http://www.serif.com/" style="fill-rule:evenodd;clip-rule:evenodd;stroke-linecap:round;stroke-linejoin:round;stroke-miterlimit:1.5;">
    <g>
        <g>
            <g transform="matrix(1.52595,0,0,1.48243,-256.314,-166.428)">
                <path d="M823.855,370.994C823.855,292.507 761.95,228.785 685.7,228.785L326.804,228.785C250.554,228.785 188.65,292.507 188.65,370.994L188.65,655.414C188.65,733.902 250.554,797.624 326.804,797.624L685.7,797.624C761.95,797.624 823.855,733.902 823.855,655.414L823.855,370.994Z" style="fill:rgb(255,0,224);stroke:rgb(255,0,224);stroke-width:13.38px;"/>
            </g>
            <g transform="matrix(1.52595,0,0,1.48243,-251.644,-330.66)">
                <path d="M823.855,370.994C823.855,292.507 761.95,228.785 685.7,228.785L326.804,228.785C250.554,228.785 188.65,292.507 188.65,370.994L188.65,655.414C188.65,733.902 250.554,797.624 326.804,797.624L685.7,797.624C761.95,797.624 823.855,733.902 823.855,655.414L823.855,370.994Z" style="fill:rgb(104,29,95);stroke:rgb(255,0,224);stroke-width:13.38px;"/>
            </g>
            <path d="M78.535,649.859C78.365,650.021 78.196,650.183 78.026,650.345" style="fill:none;stroke:rgb(255,0,224);stroke-width:20.13px;"/>
            <path d="M84.827,689.079C36.186,715.185 173.966,833.449 175.503,810.635" style="fill:none;stroke:rgb(255,0,224);stroke-width:20.13px;"/>
            <path d="M691.477,64.235C689.871,63.833 706.081,62.616 711.648,62.616C725.211,62.616 761.983,60.205 761.983,65.577" style="fill:none;stroke:rgb(255,0,224);stroke-width:20.13px;"/>
            <path d="M833.737,66.005C832.623,65.318 833.315,65.577 831.563,65.577" style="fill:none;stroke:rgb(255,0,224);stroke-width:20.13px;"/>
        </g>
        <g transform="matrix(1,0,0,1,-6.12841,-15.7945)">
            <g>
                <g transform="matrix(0.476761,-0.573913,0.377119,0.308145,160.881,486.376)">
                    <path d="M458.682,307.781L414.77,307.781L439.031,285.305L441.129,242.998L458.682,307.781Z" style="fill:rgb(16,171,39);"/>
                </g>
                <g transform="matrix(0.38787,-0.611406,0.347776,0.284169,219.35,487.489)">
                    <path d="M458.682,307.781L414.77,307.781L434.551,292.237L441.129,242.998L458.682,307.781Z" style="fill:rgb(32,130,46);"/>
                </g>
                <g transform="matrix(0.726765,-1.14561,0.410787,0.335655,66.2847,695.154)">
                    <path d="M463.075,300.878L414.77,307.781L439.031,285.305L441.129,242.998L463.075,300.878Z" style="fill:rgb(19,94,30);"/>
                </g>
                <g transform="matrix(0.707233,0,0,0.802644,168.651,85.6184)">
                    <g transform="matrix(0.984427,0.175796,-0.175796,0.984427,617.612,-304.697)">
                        <path d="M137.492,496.982L147.351,513.123L127.632,513.123L137.492,496.982Z" style="fill:white;"/>
                    </g>
                    <g transform="matrix(0.984427,0.175796,-0.175796,0.984427,650.344,-298.852)">
                        <path d="M137.492,496.982L147.351,513.123L127.632,513.123L137.492,496.982Z" style="fill:white;"/>
                    </g>
                    <g transform="matrix(0.984427,0.175796,-0.175796,0.984427,667.702,-295.753)">
                        <path d="M137.492,496.982L147.351,513.123L127.632,513.123L137.492,496.982Z" style="fill:white;"/>
                    </g>
                    <g transform="matrix(0.984427,0.175796,-0.175796,0.984427,634.969,-301.598)">
                        <path d="M137.492,496.982L147.351,513.123L127.632,513.123L137.492,496.982Z" style="fill:white;"/>
                    </g>
                </g>
                <g transform="matrix(1.68386,0,0,2.282,-303.859,-113.505)">
                    <path d="M477.489,122.711C485.365,122.711 489.419,126.046 489.419,131.717C489.419,137.388 480.086,140.255 472.21,140.255C464.335,140.255 479.241,139.599 479.241,133.928C479.241,128.257 469.614,122.711 477.489,122.711Z" style="fill:rgb(9,102,23);"/>
                </g>
                <g transform="matrix(0.87065,0.0499371,-0.0531445,0.658259,84.7912,50.7593)">
                    <g transform="matrix(0.984427,0.175796,-0.175796,0.984427,617.612,-304.697)">
                        <path d="M137.492,496.982L147.351,513.123L127.632,513.123L137.492,496.982Z" style="fill:rgb(16,171,39);"/>
                    </g>
                    <g transform="matrix(0.984427,0.175796,-0.175796,0.984427,650.344,-298.852)">
                        <path d="M137.492,496.982L147.351,513.123L127.632,513.123L137.492,496.982Z" style="fill:rgb(16,171,39);"/>
                    </g>
                    <g transform="matrix(0.984427,0.175796,-0.175796,0.984427,667.702,-295.753)">
                        <path d="M137.492,496.982L147.351,513.123L127.632,513.123L137.492,496.982Z" style="fill:rgb(16,171,39);"/>
                    </g>
                    <g transform="matrix(1.62279,0.289793,-0.456522,2.55644,693.266,-1124.66)">
                        <path d="M137.492,496.982L147.351,513.123L127.632,513.123L137.492,496.982Z" style="fill:rgb(16,171,39);"/>
                    </g>
                </g>
                <g transform="matrix(0.870676,0,0,0.813774,39.9261,24.5066)">
                    <path d="M475.445,129.672C488.661,129.672 613.34,205.308 613.34,205.308C613.34,205.308 646.463,227.189 664.557,235.11C689.145,245.873 768.08,263.777 760.871,269.889C748.661,280.242 658.248,262.482 679.545,289.285C690.609,303.21 748.605,306.406 728.977,306.835C670.599,308.112 664.297,291.942 659.274,304.682C650.986,325.7 608.146,321.438 604.939,316.081L638.568,391.354L570.18,389.712L497.089,391.354C515.521,333.821 553.995,323.566 549.179,297.164C547.055,285.523 338.41,355.439 438.973,303.392C461.82,291.567 545.987,276.578 542.828,265.709C535.541,240.644 442.087,223.338 446.171,209.289C450.255,195.241 525.93,231.019 545.007,215.527C564.083,200.036 462.229,129.672 475.445,129.672Z" style="fill:rgb(19,209,47);"/>
                </g>
                <g transform="matrix(0.837929,0,0,4.416,120.074,-784.24)">
                    <ellipse cx="375.336" cy="239.967" rx="3.651" ry="0.767" style="fill:rgb(19,94,30);"/>
                </g>
                <g transform="matrix(1.09529,0,0,3.18888,6.11634,-450.87)">
                    <ellipse cx="427.556" cy="224.932" rx="3.909" ry="1.195" style="fill:rgb(19,94,30);"/>
                </g>
                <g transform="matrix(11.062,0,0,0.802644,-6125.17,85.6184)">
                    <ellipse cx="607.384" cy="234.45" rx="0.436" ry="3.898" style="fill:rgb(19,94,30);"/>
                </g>
                <g transform="matrix(0.707233,0,0,0.802644,168.651,85.6184)">
                    <ellipse cx="659.941" cy="181.364" rx="1.806" ry="1.724" style="fill:rgb(19,94,30);"/>
                </g>
                <g transform="matrix(0.707233,0,0,0.802644,168.651,85.6184)">
                    <ellipse cx="445.169" cy="79.813" rx="5.799" ry="2.278" style="fill:rgb(19,94,30);"/>
                </g>
                <g transform="matrix(0.707233,0,0,0.802644,168.651,85.6184)">
                    <ellipse cx="523.013" cy="270.7" rx="9.574" ry="9.559" style="fill:rgb(19,94,30);"/>
                </g>
                <g transform="matrix(0.707233,0,0,0.802644,168.651,85.6184)">
                    <ellipse cx="567.554" cy="301.713" rx="7.979" ry="6.413" style="fill:rgb(19,94,30);"/>
                </g>
                <g transform="matrix(0.707233,0,0,0.802644,168.651,85.6184)">
                    <ellipse cx="509.531" cy="204.969" rx="5.738" ry="4.615" style="fill:rgb(19,94,30);"/>
                </g>
                <g transform="matrix(0.707233,0,0,0.802644,168.651,85.6184)">
                    <ellipse cx="560.917" cy="219.842" rx="2.31" ry="2.5" style="fill:rgb(19,94,30);"/>
                </g>
                <g transform="matrix(0.707233,0,0,0.802644,168.651,85.6184)">
                    <ellipse cx="527.077" cy="123.67" rx="6.796" ry="6.411" style="fill:rgb(19,94,30);"/>
                </g>
                <g transform="matrix(0.707233,0,0,0.802644,168.651,85.6184)">
                    <ellipse cx="452.535" cy="157.937" rx="4.681" ry="3.838" style="fill:rgb(19,94,30);"/>
                </g>
                <g transform="matrix(0.933757,0.14676,-0.219322,1.79734,82.9726,-160.216)">
                    <ellipse cx="544.894" cy="168.708" rx="4.161" ry="1.791" style="fill:rgb(19,94,30);"/>
                </g>
                <g transform="matrix(0.707233,0,0,0.802644,168.651,85.6184)">
                    <ellipse cx="571.04" cy="144.886" rx="2.117" ry="2.982" style="fill:rgb(19,94,30);"/>
                </g>
                <g transform="matrix(0.707233,0,0,0.802644,168.651,85.6184)">
                    <ellipse cx="504.053" cy="154.797" rx="4.529" ry="4.33" style="fill:rgb(19,94,30);"/>
                </g>
                <g transform="matrix(0.707233,0,0,0.802644,168.651,85.6184)">
                    <ellipse cx="477.634" cy="297.172" rx="10.949" ry="8.665" style="fill:rgb(19,94,30);"/>
                </g>
                <g transform="matrix(0.707233,0,0,0.802644,168.651,85.6184)">
                    <ellipse cx="601.455" cy="193.775" rx="0.788" ry="0.026" style="fill:white;"/>
                </g>
                <g transform="matrix(0.594281,0,0,0.771086,232.944,81.6083)">
                    <ellipse cx="603.469" cy="198.665" rx="34.269" ry="29.697" style="fill:white;"/>
                </g>
                <g transform="matrix(0.35388,0.00587759,-0.00651534,0.505259,383.173,136.357)">
                    <ellipse cx="603.469" cy="198.665" rx="34.269" ry="29.697"/>
                </g>
                <g transform="matrix(0.853304,0,0,0.82208,86.3834,67.6133)">
                    <ellipse cx="601.995" cy="200.102" rx="6.787" ry="7.71" style="fill:white;"/>
                </g>
            </g>
            <g transform="matrix(-0.0671343,1.48055,-1.9746,-0.0895369,952.335,-407.109)">
                <path d="M500.968,101.422C421.529,101.422 357.13,143.292 357.13,194.942C357.13,246.558 421.582,288.463 500.968,288.463C512.86,288.463 524.706,287.504 536.235,285.608L500.968,194.942L500.968,101.422Z" style="fill:rgb(68,71,150);fill-opacity:0.68;"/>
            </g>
            <g transform="matrix(0.415981,0,0,0.495555,113.553,110.167)">
                <path d="M1544,472.5C1544,442.953 1515.46,419 1480.27,419C1286.87,419 708.134,419 514.734,419C479.535,419 451,442.953 451,472.5C451,472.5 451,472.5 451,472.5C451,502.047 479.535,526 514.734,526C708.134,526 1286.87,526 1480.27,526C1515.46,526 1544,502.047 1544,472.5C1544,472.5 1544,472.5 1544,472.5Z" style="fill:rgb(73,73,73);"/>
            </g>
            <g transform="matrix(0.531153,0,0,0.495555,291.6,46.2407)">
                <g transform="matrix(0.896142,0,0,1,-681.09,-105.356)">
                    <ellipse cx="1333.93" cy="933.153" rx="67.536" ry="54.029" style="fill:rgb(61,65,124);"/>
                </g>
                <g transform="matrix(1,0,0,1,-849.015,43.8088)">
                    <path d="M1369.73,729.888C1365.54,729.562 1361.31,729.562 1357.11,729.888L1355.21,737.748C1351.19,738.229 1347.26,739.061 1343.47,740.229L1336.84,734.17C1333,735.542 1329.34,737.209 1325.91,739.147L1329.25,746.702C1326.08,748.702 1323.19,750.975 1320.66,753.479L1311.08,750.844C1308.62,753.548 1306.51,756.435 1304.77,759.464L1312.45,764.69C1310.97,767.674 1309.91,770.779 1309.3,773.948L1299.34,775.443C1298.92,778.753 1298.92,782.087 1299.34,785.397L1309.3,786.893C1309.91,790.061 1310.97,793.167 1312.45,796.151L1304.77,801.376C1306.51,804.406 1308.62,807.293 1311.08,809.996L1320.66,807.362C1323.19,809.865 1326.08,812.139 1329.25,814.139L1325.91,821.694C1329.34,823.631 1333,825.298 1336.84,826.671L1343.47,820.612C1347.26,821.78 1351.19,822.612 1355.21,823.092L1357.11,830.952C1361.31,831.278 1365.54,831.278 1369.73,830.952L1371.63,823.092C1375.65,822.612 1379.59,821.78 1383.37,820.612L1390,826.671C1393.84,825.298 1397.5,823.631 1400.93,821.694L1397.59,814.139C1400.76,812.139 1403.65,809.865 1406.18,807.362L1415.77,809.996C1418.22,807.293 1420.34,804.406 1422.08,801.376L1414.39,796.151C1415.87,793.167 1416.93,790.061 1417.54,786.893L1427.51,785.397C1427.92,782.087 1427.92,778.753 1427.51,775.443L1417.54,773.948C1416.93,770.779 1415.87,767.674 1414.39,764.69L1422.08,759.464C1420.34,756.435 1418.22,753.548 1415.77,750.844L1406.18,753.479C1403.65,750.975 1400.76,748.702 1397.59,746.702L1400.93,739.147C1397.5,737.209 1393.84,735.542 1390,734.17L1383.37,740.229C1379.59,739.061 1375.65,738.229 1371.63,737.748L1369.73,729.888ZM1363.42,756.485C1380.17,756.485 1393.78,767.21 1393.78,780.42C1393.78,793.63 1380.17,804.355 1363.42,804.355C1346.67,804.355 1333.07,793.63 1333.07,780.42C1333.07,767.21 1346.67,756.485 1363.42,756.485Z" style="fill:rgb(155,158,201);"/>
                </g>
                <g transform="matrix(0.0265723,-0.032636,0.292316,0.238004,304.659,702.501)">
                    <path d="M1360.94,659.08C1360.94,633.918 1183.48,614.382 954.924,614.382C954.904,614.382 954.884,614.382 954.863,614.382C848.815,614.382 744.527,619.236 666.86,627.786C589.192,636.337 545.104,647.818 545.104,659.493C545.104,806.148 545.104,1260.03 545.104,1260.03L1360.94,1260.03C1360.94,1260.03 1360.94,805.295 1360.94,659.08Z" style="fill:rgb(6,8,42);"/>
                </g>
                <g transform="matrix(-0.0202749,-0.0368799,0.330328,-0.181599,538.156,1112.39)">
                    <rect x="545.104" y="614.382" width="815.837" height="645.646" style="fill:rgb(6,8,42);"/>
                </g>
                <g transform="matrix(0.393595,0.168593,-0.24205,0.565086,414.851,204.443)">
                    <path d="M1324.52,917.874L1354.74,995.57L1294.31,995.57L1324.52,917.874Z" style="fill:rgb(61,65,124);"/>
                </g>
                <g transform="matrix(0.31021,-0.081161,-0.11755,-0.443702,641.594,1379.93)">
                    <path d="M1324.52,917.874L1354.74,995.57L1294.31,995.57L1324.52,917.874Z" style="fill:rgb(61,65,124);"/>
                </g>
                <g transform="matrix(0.45381,-0.256887,0.0869557,0.530805,33.3098,799.219)">
                    <path d="M1324.52,917.874L1354.74,995.57L1294.31,995.57L1324.52,917.874Z" style="fill:rgb(31,33,69);"/>
                </g>
                <g transform="matrix(0.30826,0.239506,0.122572,-0.382225,423.897,898.98)">
                    <path d="M1324.52,917.874L1354.74,995.57L1294.31,995.57L1324.52,917.874Z" style="fill:rgb(31,33,69);"/>
                </g>
                <g transform="matrix(1,0,0,1,-327.197,-107.015)">
                    <g transform="matrix(0.650291,-0.140449,0.335999,1.5557,197.779,-289.19)">
                        <rect x="1280.2" y="879.492" width="129.454" height="5.318" style="fill:rgb(155,158,201);"/>
                    </g>
                    <g transform="matrix(0.630703,-0.211704,0.506463,1.50884,73.9974,-104.221)">
                        <rect x="1280.2" y="879.492" width="129.454" height="5.318" style="fill:rgb(155,158,201);"/>
                    </g>
                    <g transform="matrix(0.653879,-0.122665,0.293454,1.56428,230.243,-299.177)">
                        <rect x="1280.2" y="879.492" width="129.454" height="5.318" style="fill:rgb(155,158,201);"/>
                    </g>
                    <g transform="matrix(0.621097,-0.238418,0.570369,1.48586,29.3222,-23.0354)">
                        <rect x="1280.2" y="879.492" width="129.454" height="5.318" style="fill:rgb(155,158,201);"/>
                    </g>
                    <g transform="matrix(0.471056,0.172032,-0.443394,1.21409,1200.69,-406.907)">
                        <rect x="1280.2" y="879.492" width="129.454" height="5.318" style="fill:rgb(155,158,201);"/>
                    </g>
                    <g transform="matrix(0.462047,0.194939,-0.502433,1.19087,1264.31,-370.5)">
                        <rect x="1280.2" y="879.492" width="129.454" height="5.318" style="fill:rgb(155,158,201);"/>
                    </g>
                    <g transform="matrix(0.467785,0.180738,-0.465831,1.20566,1224.67,-386.74)">
                        <rect x="1280.2" y="879.492" width="129.454" height="5.318" style="fill:rgb(155,158,201);"/>
                    </g>
                    <g transform="matrix(0.425651,0.26516,-0.683419,1.09707,1475.08,-352.961)">
                        <rect x="1280.2" y="879.492" width="129.454" height="5.318" style="fill:rgb(155,158,201);"/>
                    </g>
                    <g transform="matrix(-0.425651,0.26516,0.683419,1.09707,1318.14,-447.086)">
                        <rect x="1280.2" y="879.492" width="129.454" height="5.318" style="fill:rgb(155,158,201);"/>
                    </g>
                    <g transform="matrix(1,0,0,1,47.4802,-219.533)">
                        <ellipse cx="1363.48" cy="1103.85" rx="8.642" ry="8.929"/>
                    </g>
                    <g transform="matrix(1,0,0,1,47.4802,-175.533)">
                        <ellipse cx="1363.48" cy="1103.85" rx="8.642" ry="8.929"/>
                    </g>
                    <g transform="matrix(1,0,0,1,47.4802,-195.658)">
                        <ellipse cx="1363.48" cy="1103.85" rx="8.642" ry="8.929"/>
                    </g>
                    <g transform="matrix(1,0,0,1,47.4802,-151.658)">
                        <ellipse cx="1363.48" cy="1103.85" rx="8.642" ry="8.929"/>
                    </g>
                    <g transform="matrix(1,0,0,0.575164,0.867611,404.425)">
                        <path d="M1352.57,845.076C1352.57,845.076 1347.77,846.08 1340.66,847.568C1306.54,854.701 1280.75,908.46 1280.75,972.431C1280.75,1001.25 1280.75,1024.3 1280.75,1024.3L1280.75,1024.3C1300,1024.3 1318.44,1009.96 1331.97,984.472C1345.51,958.986 1353.01,924.471 1352.82,888.615C1352.68,863.54 1352.57,845.076 1352.57,845.076Z"/>
                    </g>
                </g>
            </g>
            <g transform="matrix(0.531153,0,0,0.721992,165.252,-120.785)">
                <path d="M1001.5,679.5L351.5,679.5L351.5,932.023C351.5,958.796 381.002,980.5 417.394,980.5C542.034,980.5 810.966,980.5 935.606,980.5C971.998,980.5 1001.5,958.796 1001.5,932.023C1001.5,846.901 1001.5,679.5 1001.5,679.5Z" style="fill:rgb(0,90,114);"/>
            </g>
            <g transform="matrix(0.588737,0,0,0.209745,104.302,233.509)">
                <path d="M1005.94,655.219L422.591,655.219L422.591,655.22C422.591,679.622 426.045,703.024 432.192,720.279C438.339,737.533 446.677,747.227 455.37,747.227L973.165,747.227C981.858,747.227 990.196,737.533 996.343,720.279C1002.49,703.024 1005.94,679.622 1005.94,655.22L1005.94,655.219Z" style="fill:rgb(0,43,54);fill-opacity:0.54;"/>
            </g>
            <g transform="matrix(0.531153,0,0,0.519833,156.687,20.4541)">
                <rect x="637.91" y="732.999" width="349.063" height="329.143" style="fill:rgb(26,108,129);fill-opacity:0.54;"/>
            </g>
            <g transform="matrix(0.442628,0,0,0.585716,229.029,-51.3439)">
                <rect x="800.11" y="774.735" width="17.074" height="288.356" style="fill:rgb(0,12,16);fill-opacity:0.54;stroke:black;stroke-width:1.93px;"/>
            </g>
            <g transform="matrix(0.442628,0,0,0.588294,142.119,-53.3411)">
                <rect x="800.11" y="774.735" width="17.074" height="288.356" style="fill:rgb(188,204,208);fill-opacity:0.54;stroke:black;stroke-width:1.92px;"/>
            </g>
            <g transform="matrix(0.442628,0,0,0.583139,318.86,-49.3468)">
                <rect x="800.11" y="774.735" width="17.074" height="288.356" style="fill:white;fill-opacity:0.54;"/>
            </g>
            <g transform="matrix(2.16825e-17,-0.33037,0.63948,3.65325e-17,1.34675,757.718)">
                <rect x="800.11" y="774.735" width="17.074" height="288.356" style="fill:rgb(26,108,129);fill-opacity:0.54;"/>
            </g>
            <g transform="matrix(1.7668e-17,-0.269201,0.640178,3.69667e-17,0.240989,787.353)">
                <rect x="800.11" y="774.735" width="17.074" height="288.356" style="fill-opacity:0.54;"/>
            </g>
            <g transform="matrix(0.475989,0,0,0.495555,-205.076,-5.96919)">
                <ellipse cx="1333.93" cy="933.153" rx="67.536" ry="54.029" style="fill:rgb(61,65,124);"/>
            </g>
            <g transform="matrix(0.531153,0,0,0.495555,156.687,46.2407)">
                <g>
                    <g>
                        <g transform="matrix(-0.827586,0,0,0.995516,873.678,-13.8529)">
                            <rect x="418.367" y="1104.57" width="54.538" height="419.376" style="fill:rgb(6,7,24);"/>
                        </g>
                        <g transform="matrix(1,0,0,1,154.21,60.1795)">
                            <ellipse cx="346.904" cy="1424.27" rx="52.657" ry="45.135" style="fill:rgb(6,7,24);"/>
                        </g>
                        <g transform="matrix(2.2112,-0.0553593,0.172809,6.90246,-922.725,-8865.62)">
                            <ellipse cx="525.562" cy="1503.26" rx="13.164" ry="3.761" style="fill:rgb(133,136,190);"/>
                        </g>
                        <g transform="matrix(1,0,0,0.662813,4.17058,377.404)">
                            <path d="M541.723,1091.7C541.723,1084.59 539.976,1077.76 536.864,1072.73C533.753,1067.7 529.533,1064.87 525.133,1064.87C511.649,1064.87 492.719,1064.87 479.236,1064.87C474.836,1064.87 470.616,1067.7 467.504,1072.73C464.393,1077.76 462.645,1084.59 462.645,1091.7C462.645,1091.7 462.645,1091.7 462.645,1091.71C462.645,1098.82 464.393,1105.64 467.504,1110.68C470.616,1115.71 474.836,1118.53 479.236,1118.53C492.719,1118.53 511.649,1118.53 525.133,1118.53C529.533,1118.53 533.753,1115.71 536.864,1110.68C539.976,1105.64 541.723,1098.82 541.723,1091.71C541.723,1091.7 541.723,1091.7 541.723,1091.7Z" style="fill:rgb(133,136,190);"/>
                        </g>
                        <g transform="matrix(0.915442,0,-2.69481e-18,0.303636,46.6555,794.442)">
                            <path d="M541.723,1091.7C541.723,1084.58 540.849,1077.76 539.292,1072.73C537.736,1067.7 535.624,1064.87 533.423,1064.87C518.234,1064.87 486.135,1064.87 470.946,1064.87C468.744,1064.87 466.633,1067.7 465.076,1072.73C463.52,1077.76 462.645,1084.58 462.645,1091.7C462.645,1091.7 462.645,1091.71 462.645,1091.71C462.645,1098.83 463.52,1105.65 465.076,1110.68C466.633,1115.71 468.744,1118.53 470.946,1118.53C486.135,1118.53 518.234,1118.53 533.423,1118.53C535.624,1118.53 537.736,1115.71 539.292,1110.68C540.849,1105.65 541.723,1098.83 541.723,1091.71C541.723,1091.71 541.723,1091.7 541.723,1091.7Z" style="fill:rgb(102,106,170);"/>
                        </g>
                    </g>
                    <g transform="matrix(1,0,0,1,87.25,0)">
                        <g transform="matrix(-0.827586,0,0,0.995516,873.678,-13.8529)">
                            <rect x="418.367" y="1104.57" width="54.538" height="419.376" style="fill:rgb(6,7,24);"/>
                        </g>
                        <g transform="matrix(1,0,0,1,154.21,60.1795)">
                            <ellipse cx="346.904" cy="1424.27" rx="52.657" ry="45.135" style="fill:rgb(6,7,24);"/>
                        </g>
                        <g transform="matrix(2.2112,-0.0553593,0.172809,6.90246,-922.725,-8865.62)">
                            <ellipse cx="525.562" cy="1503.26" rx="13.164" ry="3.761" style="fill:rgb(133,136,190);"/>
                        </g>
                        <g transform="matrix(1,0,0,0.662813,4.17058,377.404)">
                            <path d="M541.723,1091.7C541.723,1084.59 539.976,1077.76 536.864,1072.73C533.753,1067.7 529.533,1064.87 525.133,1064.87C511.649,1064.87 492.719,1064.87 479.236,1064.87C474.836,1064.87 470.616,1067.7 467.504,1072.73C464.393,1077.76 462.645,1084.59 462.645,1091.7C462.645,1091.7 462.645,1091.7 462.645,1091.71C462.645,1098.82 464.393,1105.64 467.504,1110.68C470.616,1115.71 474.836,1118.53 479.236,1118.53C492.719,1118.53 511.649,1118.53 525.133,1118.53C529.533,1118.53 533.753,1115.71 536.864,1110.68C539.976,1105.64 541.723,1098.82 541.723,1091.71C541.723,1091.7 541.723,1091.7 541.723,1091.7Z" style="fill:rgb(133,136,190);"/>
                        </g>
                        <g transform="matrix(0.915442,0,-2.69481e-18,0.303636,46.6555,794.442)">
                            <path d="M541.723,1091.7C541.723,1084.58 540.849,1077.76 539.292,1072.73C537.736,1067.7 535.624,1064.87 533.423,1064.87C518.234,1064.87 486.135,1064.87 470.946,1064.87C468.744,1064.87 466.633,1067.7 465.076,1072.73C463.52,1077.76 462.645,1084.58 462.645,1091.7C462.645,1091.7 462.645,1091.71 462.645,1091.71C462.645,1098.83 463.52,1105.65 465.076,1110.68C466.633,1115.71 468.744,1118.53 470.946,1118.53C486.135,1118.53 518.234,1118.53 533.423,1118.53C535.624,1118.53 537.736,1115.71 539.292,1110.68C540.849,1105.65 541.723,1098.83 541.723,1091.71C541.723,1091.71 541.723,1091.7 541.723,1091.7Z" style="fill:rgb(102,106,170);"/>
                        </g>
                    </g>
                    <g transform="matrix(1,0,0,1,426.829,-2.70145)">
                        <g transform="matrix(-0.827586,0,0,0.995516,873.678,-13.8529)">
                            <rect x="418.367" y="1104.57" width="54.538" height="419.376" style="fill:rgb(6,7,24);"/>
                        </g>
                        <g transform="matrix(1,0,0,1,154.21,60.1795)">
                            <ellipse cx="346.904" cy="1424.27" rx="52.657" ry="45.135" style="fill:rgb(6,7,24);"/>
                        </g>
                        <g transform="matrix(2.2112,-0.0553593,0.172809,6.90246,-922.725,-8865.62)">
                            <ellipse cx="525.562" cy="1503.26" rx="13.164" ry="3.761" style="fill:rgb(133,136,190);"/>
                        </g>
                        <g transform="matrix(1,0,0,0.662813,4.17058,377.404)">
                            <path d="M541.723,1091.7C541.723,1084.59 539.976,1077.76 536.864,1072.73C533.753,1067.7 529.533,1064.87 525.133,1064.87C511.649,1064.87 492.719,1064.87 479.236,1064.87C474.836,1064.87 470.616,1067.7 467.504,1072.73C464.393,1077.76 462.645,1084.59 462.645,1091.7C462.645,1091.7 462.645,1091.7 462.645,1091.71C462.645,1098.82 464.393,1105.64 467.504,1110.68C470.616,1115.71 474.836,1118.53 479.236,1118.53C492.719,1118.53 511.649,1118.53 525.133,1118.53C529.533,1118.53 533.753,1115.71 536.864,1110.68C539.976,1105.64 541.723,1098.82 541.723,1091.71C541.723,1091.7 541.723,1091.7 541.723,1091.7Z" style="fill:rgb(133,136,190);"/>
                        </g>
                        <g transform="matrix(0.915442,0,-2.69481e-18,0.303636,46.6555,794.442)">
                            <path d="M541.723,1091.7C541.723,1084.58 540.849,1077.76 539.292,1072.73C537.736,1067.7 535.624,1064.87 533.423,1064.87C518.234,1064.87 486.135,1064.87 470.946,1064.87C468.744,1064.87 466.633,1067.7 465.076,1072.73C463.52,1077.76 462.645,1084.58 462.645,1091.7C462.645,1091.7 462.645,1091.71 462.645,1091.71C462.645,1098.83 463.52,1105.65 465.076,1110.68C466.633,1115.71 468.744,1118.53 470.946,1118.53C486.135,1118.53 518.234,1118.53 533.423,1118.53C535.624,1118.53 537.736,1115.71 539.292,1110.68C540.849,1105.65 541.723,1098.83 541.723,1091.71C541.723,1091.71 541.723,1091.7 541.723,1091.7Z" style="fill:rgb(102,106,170);"/>
                        </g>
                    </g>
                    <g transform="matrix(1,0,0,1,321.454,-2.70145)">
                        <g transform="matrix(-0.827586,0,0,0.995516,873.678,-13.8529)">
                            <rect x="418.367" y="1104.57" width="54.538" height="419.376" style="fill:rgb(6,7,24);"/>
                        </g>
                        <g transform="matrix(1,0,0,1,154.21,60.1795)">
                            <ellipse cx="346.904" cy="1424.27" rx="52.657" ry="45.135" style="fill:rgb(6,7,24);"/>
                        </g>
                        <g transform="matrix(2.2112,-0.0553593,0.172809,6.90246,-922.725,-8865.62)">
                            <ellipse cx="525.562" cy="1503.26" rx="13.164" ry="3.761" style="fill:rgb(133,136,190);"/>
                        </g>
                        <g transform="matrix(1,0,0,0.662813,4.17058,377.404)">
                            <path d="M541.723,1091.7C541.723,1084.59 539.976,1077.76 536.864,1072.73C533.753,1067.7 529.533,1064.87 525.133,1064.87C511.649,1064.87 492.719,1064.87 479.236,1064.87C474.836,1064.87 470.616,1067.7 467.504,1072.73C464.393,1077.76 462.645,1084.59 462.645,1091.7C462.645,1091.7 462.645,1091.7 462.645,1091.71C462.645,1098.82 464.393,1105.64 467.504,1110.68C470.616,1115.71 474.836,1118.53 479.236,1118.53C492.719,1118.53 511.649,1118.53 525.133,1118.53C529.533,1118.53 533.753,1115.71 536.864,1110.68C539.976,1105.64 541.723,1098.82 541.723,1091.71C541.723,1091.7 541.723,1091.7 541.723,1091.7Z" style="fill:rgb(133,136,190);"/>
                        </g>
                        <g transform="matrix(0.915442,0,-2.69481e-18,0.303636,46.6555,794.442)">
                            <path d="M541.723,1091.7C541.723,1084.58 540.849,1077.76 539.292,1072.73C537.736,1067.7 535.624,1064.87 533.423,1064.87C518.234,1064.87 486.135,1064.87 470.946,1064.87C468.744,1064.87 466.633,1067.7 465.076,1072.73C463.52,1077.76 462.645,1084.58 462.645,1091.7C462.645,1091.7 462.645,1091.71 462.645,1091.71C462.645,1098.83 463.52,1105.65 465.076,1110.68C466.633,1115.71 468.744,1118.53 470.946,1118.53C486.135,1118.53 518.234,1118.53 533.423,1118.53C535.624,1118.53 537.736,1115.71 539.292,1110.68C540.849,1105.65 541.723,1098.83 541.723,1091.71C541.723,1091.71 541.723,1091.7 541.723,1091.7Z" style="fill:rgb(102,106,170);"/>
                        </g>
                    </g>
                </g>
                <g transform="matrix(0.0265723,-0.032636,0.292316,0.238004,304.659,702.501)">
                    <path d="M1360.94,659.08C1360.94,633.918 1183.48,614.382 954.924,614.382C954.904,614.382 954.884,614.382 954.863,614.382C848.815,614.382 744.527,619.236 666.86,627.786C589.192,636.337 545.104,647.818 545.104,659.493C545.104,806.148 545.104,1260.03 545.104,1260.03L1360.94,1260.03C1360.94,1260.03 1360.94,805.295 1360.94,659.08Z" style="fill:rgb(6,8,42);"/>
                </g>
                <g transform="matrix(-0.0202749,-0.0368799,0.330328,-0.181599,538.156,1112.39)">
                    <rect x="545.104" y="614.382" width="815.837" height="645.646" style="fill:rgb(6,8,42);"/>
                </g>
                <g transform="matrix(0.393595,0.168593,-0.24205,0.565086,414.851,204.443)">
                    <path d="M1324.52,917.874L1354.74,995.57L1294.31,995.57L1324.52,917.874Z" style="fill:rgb(61,65,124);"/>
                </g>
                <g transform="matrix(0.31021,-0.081161,-0.11755,-0.443702,641.594,1379.93)">
                    <path d="M1324.52,917.874L1354.74,995.57L1294.31,995.57L1324.52,917.874Z" style="fill:rgb(61,65,124);"/>
                </g>
                <g transform="matrix(0.45381,-0.256887,0.0869557,0.530805,33.3098,799.219)">
                    <path d="M1324.52,917.874L1354.74,995.57L1294.31,995.57L1324.52,917.874Z" style="fill:rgb(31,33,69);"/>
                </g>
                <g transform="matrix(0.30826,0.239506,0.122572,-0.382225,423.897,898.98)">
                    <path d="M1324.52,917.874L1354.74,995.57L1294.31,995.57L1324.52,917.874Z" style="fill:rgb(31,33,69);"/>
                </g>
                <g transform="matrix(1,0,0,1,-327.197,-107.015)">
                    <g transform="matrix(0.650291,-0.140449,0.335999,1.5557,197.779,-289.19)">
                        <rect x="1280.2" y="879.492" width="129.454" height="5.318" style="fill:rgb(155,158,201);"/>
                    </g>
                    <g transform="matrix(0.630703,-0.211704,0.506463,1.50884,73.9974,-104.221)">
                        <rect x="1280.2" y="879.492" width="129.454" height="5.318" style="fill:rgb(155,158,201);"/>
                    </g>
                    <g transform="matrix(0.653879,-0.122665,0.293454,1.56428,230.243,-299.177)">
                        <rect x="1280.2" y="879.492" width="129.454" height="5.318" style="fill:rgb(155,158,201);"/>
                    </g>
                    <g transform="matrix(0.621097,-0.238418,0.570369,1.48586,29.3222,-23.0354)">
                        <rect x="1280.2" y="879.492" width="129.454" height="5.318" style="fill:rgb(155,158,201);"/>
                    </g>
                    <g transform="matrix(0.471056,0.172032,-0.443394,1.21409,1200.69,-406.907)">
                        <rect x="1280.2" y="879.492" width="129.454" height="5.318" style="fill:rgb(155,158,201);"/>
                    </g>
                    <g transform="matrix(0.462047,0.194939,-0.502433,1.19087,1264.31,-370.5)">
                        <rect x="1280.2" y="879.492" width="129.454" height="5.318" style="fill:rgb(155,158,201);"/>
                    </g>
                    <g transform="matrix(0.467785,0.180738,-0.465831,1.20566,1224.67,-386.74)">
                        <rect x="1280.2" y="879.492" width="129.454" height="5.318" style="fill:rgb(155,158,201);"/>
                    </g>
                    <g transform="matrix(0.425651,0.26516,-0.683419,1.09707,1475.08,-352.961)">
                        <rect x="1280.2" y="879.492" width="129.454" height="5.318" style="fill:rgb(155,158,201);"/>
                    </g>
                    <g transform="matrix(-0.425651,0.26516,0.683419,1.09707,1318.14,-447.086)">
                        <rect x="1280.2" y="879.492" width="129.454" height="5.318" style="fill:rgb(155,158,201);"/>
                    </g>
                    <g transform="matrix(1,0,0,1,47.4802,-219.533)">
                        <ellipse cx="1363.48" cy="1103.85" rx="8.642" ry="8.929"/>
                    </g>
                    <g transform="matrix(1,0,0,1,47.4802,-175.533)">
                        <ellipse cx="1363.48" cy="1103.85" rx="8.642" ry="8.929"/>
                    </g>
                    <g transform="matrix(1,0,0,1,47.4802,-195.658)">
                        <ellipse cx="1363.48" cy="1103.85" rx="8.642" ry="8.929"/>
                    </g>
                    <g transform="matrix(1,0,0,1,47.4802,-151.658)">
                        <ellipse cx="1363.48" cy="1103.85" rx="8.642" ry="8.929"/>
                    </g>
                    <g transform="matrix(1,0,0,0.575164,0.867611,404.425)">
                        <path d="M1352.57,845.076C1352.57,845.076 1347.77,846.08 1340.66,847.568C1306.54,854.701 1280.75,908.46 1280.75,972.431C1280.75,1001.25 1280.75,1024.3 1280.75,1024.3L1280.75,1024.3C1300,1024.3 1318.44,1009.96 1331.97,984.472C1345.51,958.986 1353.01,924.471 1352.82,888.615C1352.68,863.54 1352.57,845.076 1352.57,845.076Z"/>
                    </g>
                </g>
            </g>
            <g transform="matrix(2.47919e-17,-0.377746,0.641708,-3.49484e-17,-1.44144,710.262)">
                <rect x="800.11" y="774.735" width="17.074" height="288.356" style="fill-opacity:0.54;"/>
            </g>
            <g transform="matrix(0.11497,-0.00797114,0.0211821,0.265937,120.189,28.1708)">
                <path d="M1642.15,934.307C1642.02,929.409 1670.52,553.864 1696.06,474.094C1720.35,398.188 1033.2,425.802 1033.2,425.802C1172.54,424.506 1593.52,415.667 1589.04,535.955C1581.3,744.135 1562.29,1133.55 1562.29,1133.55L1726.17,1144.78C1726.17,1144.78 1644.38,1014.97 1642.15,934.307Z"/>
            </g>
            <g transform="matrix(0.531153,0,0,0.495555,155.625,37.3207)">
                <path d="M459,1025L389,950C389,950 389,950.001 388.999,950.004C380.361,989.192 391.544,1030.36 418.457,1058.46C445.371,1086.55 484.066,1097.45 520.387,1087.16C525.234,1085.78 528,1085 528,1085L459,1025Z" style="fill:rgb(3,190,238);"/>
            </g>
            <g transform="matrix(0.898157,0.0759327,-0.0624931,0.739188,39.0545,122.51)">
                <g transform="matrix(0.0426528,-0.364687,2.48604,0.30049,-994.462,414.231)">
                    <path d="M336.134,454.369C392.57,459.07 618.037,481.733 437.262,544.794L220.904,550.397L356.483,535.612L448.707,517.034L467.261,489.252L336.134,454.369Z" style="fill:rgb(16,171,39);"/>
                </g>
                <g transform="matrix(0.77715,-0.662278,0.517718,0.627844,-472.985,719.689)">
                    <g transform="matrix(0.984427,0.175796,-0.175796,0.984427,617.612,-304.697)">
                        <path d="M137.492,496.982L147.351,513.123L127.632,513.123L137.492,496.982Z" style="fill:rgb(16,171,39);"/>
                    </g>
                    <g transform="matrix(0.984427,0.175796,-0.175796,0.984427,650.344,-298.852)">
                        <path d="M137.492,496.982L147.351,513.123L127.632,513.123L137.492,496.982Z" style="fill:rgb(16,171,39);"/>
                    </g>
                    <g transform="matrix(0.984427,0.175796,-0.175796,0.984427,667.702,-295.753)">
                        <path d="M137.492,496.982L147.351,513.123L127.632,513.123L137.492,496.982Z" style="fill:rgb(16,171,39);"/>
                    </g>
                    <g transform="matrix(1.62279,0.289793,-0.456522,2.55644,693.266,-1124.66)">
                        <path d="M137.492,496.982L147.351,513.123L127.632,513.123L137.492,496.982Z" style="fill:rgb(16,171,39);"/>
                    </g>
                </g>
            </g>
        </g>
    </g>
</svg>
