<?xml version="1.0" encoding="UTF-8" standalone="no"?>
<!DOCTYPE svg PUBLIC "-//W3C//DTD SVG 1.1//EN" "http://www.w3.org/Graphics/SVG/1.1/DTD/svg11.dtd">
<svg width="100%" height="100%" viewBox="0 0 2048 1536" version="1.1" xmlns="http://www.w3.org/2000/svg" xmlns:xlink="http://www.w3.org/1999/xlink" xml:space="preserve" xmlns:serif="http://www.serif.com/" style="fill-rule:evenodd;clip-rule:evenodd;stroke-linecap:round;stroke-linejoin:round;stroke-miterlimit:1.5;">
    <g transform="matrix(0.655757,0,0,0.59013,-171.901,362.607)">
        <g transform="matrix(0.915181,-0.370947,0.23532,0.997299,-185.196,617.379)">
            <ellipse cx="1553.52" cy="532.578" rx="15.972" ry="20.794" style="fill:rgb(103,140,187);"/>
        </g>
        <g transform="matrix(0.165742,-0.980039,0.931676,0.225109,1024.37,2189.93)">
            <ellipse cx="1553.52" cy="532.578" rx="15.972" ry="20.794" style="fill:rgb(103,140,187);"/>
        </g>
        <g transform="matrix(0.805051,0,0,1.52713,355.221,-698.264)">
            <path d="M1886.75,821.94L1478.27,821.94L1478.27,990.459C1478.27,1014.97 1512.19,1034.84 1554.04,1034.84L1810.98,1034.84C1852.82,1034.84 1886.75,1014.97 1886.75,990.459L1886.75,821.94Z" style="fill:rgb(134,162,167);"/>
        </g>
        <g transform="matrix(0.741414,0,0,1.47287,462.496,-653.663)">
            <path d="M1886.75,821.94L1478.27,821.94L1478.27,988.824C1478.27,1001.03 1486.93,1012.74 1502.36,1021.37C1517.79,1030 1538.72,1034.84 1560.54,1034.84L1804.47,1034.84C1826.29,1034.84 1847.22,1030 1862.65,1021.37C1878.08,1012.74 1886.75,1001.03 1886.75,988.824L1886.75,821.94Z" style="fill:rgb(190,187,187);"/>
        </g>
        <g transform="matrix(-0.527511,-0.480582,0.649044,-0.860095,1819.32,2064.98)">
            <path d="M1472.9,792.233L1526.95,838.857C1526.95,838.857 1488.07,842.358 1477.99,848.68C1442.24,871.109 1454.6,812.906 1472.9,792.233Z" style="fill:rgb(106,104,104);"/>
        </g>
        <g transform="matrix(0.757591,-0.0156138,-0.0208196,-1.01018,730.48,1483.24)">
            <path d="M1472.9,792.233L1526.95,838.857C1526.95,838.857 1484.39,846.943 1475.39,839.173C1466.38,831.402 1472.9,792.233 1472.9,792.233Z" style="fill:rgb(106,104,104);"/>
        </g>
        <g transform="matrix(0.767346,0,0,1,365.272,-173.808)">
            <path d="M1559.56,738.95C1548.51,733.425 1504.31,733.425 1493.26,738.95C1483.38,743.892 1483.38,767.16 1493.26,772.102C1504.31,777.627 1548.51,777.627 1559.56,772.102C1569.45,767.16 1569.45,743.892 1559.56,738.95Z" style="fill:rgb(103,140,187);"/>
        </g>
        <g transform="matrix(0.0733939,1.00084,-0.591598,0.123313,1933.79,-925.36)">
            <path d="M1492.71,817.401C1492.71,817.401 1436.58,797.56 1429.99,817.401C1419.54,848.897 1419.54,974.879 1429.99,1006.37C1436.58,1026.21 1486.12,1026.21 1492.71,1006.37C1503.16,974.879 1492.71,817.401 1492.71,817.401Z" style="fill:rgb(103,140,187);"/>
        </g>
        <g transform="matrix(0.0698449,0.915425,-0.571838,0.121348,1921.12,-802.449)">
            <path d="M1492.71,817.401C1492.71,817.401 1436.58,797.56 1429.99,817.401C1419.54,848.897 1419.54,974.879 1429.99,1006.37C1436.58,1026.21 1476.01,1018.96 1492.71,1006.37C1534.74,974.708 1523.94,817.232 1492.71,817.401Z" style="fill:rgb(123,152,191);"/>
        </g>
        <g transform="matrix(0.707581,0,0,1.3,559.916,-591.697)">
            <path d="M1790.09,1079.55L1456.73,1079.55C1456.42,1079.55 1456.18,1079.69 1456.18,1079.88C1456.18,1079.88 1456.18,1079.88 1456.18,1079.88C1456.18,1089.38 1462.42,1098.5 1473.54,1105.21C1484.65,1111.93 1499.71,1115.71 1515.43,1115.71L1734.88,1115.71C1765.37,1115.71 1790.09,1100.76 1790.09,1082.32L1790.09,1079.55Z" style="fill:rgb(106,104,104);"/>
        </g>
        <g transform="matrix(0.694946,0,0,0.9,581.932,-161.083)">
            <path d="M1790.09,1079.55L1456.73,1079.55C1456.43,1079.55 1456.18,1079.76 1456.18,1080.02C1456.18,1080.02 1456.18,1080.02 1456.18,1080.02C1456.18,1099.73 1474.8,1115.71 1497.77,1115.71C1561.75,1115.71 1683.64,1115.71 1747.94,1115.71C1759.12,1115.71 1769.84,1111.9 1777.75,1105.12C1785.65,1098.34 1790.09,1089.14 1790.09,1079.55C1790.09,1079.55 1790.09,1079.55 1790.09,1079.55Z" style="fill:rgb(162,159,159);"/>
        </g>
        <g transform="matrix(-0.944992,0.459334,0.231882,0.477052,3052.05,-416.65)">
            <path d="M1492.53,818.441C1492.53,818.441 1443.49,754.574 1436.91,774.415C1426.46,805.911 1421.68,942.568 1434.94,969.607C1447.12,994.443 1467.12,1000.4 1482.13,982.83C1498.51,963.65 1492.53,818.441 1492.53,818.441Z" style="fill:rgb(103,140,187);"/>
        </g>
        <g transform="matrix(-0.861084,0.418549,0.278826,0.573631,2897.36,-430.399)">
            <path d="M1492.53,818.441C1492.53,818.441 1443.49,754.574 1436.91,774.415C1426.46,805.911 1421.68,942.568 1434.94,969.607C1447.12,994.443 1467.12,1000.4 1482.13,982.83C1498.51,963.65 1492.53,818.441 1492.53,818.441Z" style="fill:rgb(112,144,187);"/>
        </g>
        <g transform="matrix(0.892396,0,0,0.968714,203.346,-155.175)">
            <ellipse cx="1694.34" cy="654.924" rx="124.62" ry="112.101" style="fill:rgb(241,228,228);"/>
        </g>
        <g transform="matrix(1,0,0,1,19.584,-173.808)">
            <ellipse cx="1694.34" cy="654.924" rx="124.62" ry="112.101" style="fill:rgb(162,159,159);"/>
        </g>
        <g transform="matrix(0.803653,0,0,0.781726,352.831,-34.8384)">
            <ellipse cx="1694.34" cy="654.924" rx="124.62" ry="112.101" style="fill:rgb(60,66,68);"/>
        </g>
        <g transform="matrix(0.961861,0.27354,-0.27354,0.961861,218.417,-640.31)">
            <path d="M1686.37,635.008C1672.87,635.008 1661.9,647.757 1661.9,663.46C1661.9,679.163 1672.87,691.912 1686.37,691.912C1682.32,685.273 1679.03,674.81 1679.03,663.46C1679.03,652.11 1682.32,641.647 1686.37,635.008Z" style="fill:white;"/>
        </g>
        <g transform="matrix(1,0,0,1,19.584,-173.808)">
            <path d="M1807.54,785.805C1805.65,773.42 1774.61,767.682 1774.61,767.682L1612.78,767.682C1612.78,767.682 1569.42,771.764 1566.19,788.457C1559.17,824.85 1570.62,986.041 1570.62,986.041L1807.98,986.041C1807.98,986.041 1813.1,822.198 1807.54,785.805Z" style="fill:rgb(103,140,187);"/>
        </g>
        <g transform="matrix(1,0,0,1.25806,19.584,-367.051)">
            <path d="M1768.49,746.708C1756.59,744.634 1733.98,763.924 1697.94,763.924C1662.43,763.924 1630.1,743.814 1616.35,745.302C1607.21,746.291 1607.65,768.022 1615.46,772.853C1644.11,790.562 1747.47,795.073 1769.38,776.367C1776.9,769.944 1778.24,748.405 1768.49,746.708Z" style="fill:rgb(128,128,128);"/>
        </g>
        <g transform="matrix(0.987562,0,0,1.03842,39.6042,-195.941)">
            <path d="M1768.49,746.708C1756.59,744.634 1733.98,763.924 1697.94,763.924C1662.43,763.924 1630.1,743.814 1616.35,745.302C1607.21,746.291 1607.65,768.022 1615.46,772.853C1644.11,790.562 1747.47,795.073 1769.38,776.367C1776.9,769.944 1778.24,748.405 1768.49,746.708Z" style="fill:rgb(150,133,133);"/>
        </g>
        <g transform="matrix(0.767346,0,0,1,701.545,-175.459)">
            <path d="M1559.56,738.95C1548.51,733.425 1504.31,733.425 1493.26,738.95C1483.38,743.892 1483.38,767.16 1493.26,772.102C1504.31,777.627 1548.51,777.627 1559.56,772.102C1569.45,767.16 1569.45,743.892 1559.56,738.95Z" style="fill:rgb(103,140,187);"/>
        </g>
        <g transform="matrix(1.27922,0,0,1.21306,-456.138,-380.401)">
            <path d="M1694.88,849.585L1709.15,891.067L1755.32,891.067L1717.97,916.705L1732.23,958.187L1694.88,932.549L1657.54,958.187L1671.8,916.705L1634.45,891.067L1680.62,891.067L1694.88,849.585Z" style="fill:rgb(150,133,133);"/>
        </g>
        <g transform="matrix(0.246685,-0.825912,1.17338,0.312829,263.877,1635.14)">
            <path d="M1506.32,709.299L1397.4,709.299L1424.63,629.254L1479.09,629.254L1506.32,709.299Z" style="fill:rgb(103,140,187);"/>
        </g>
        <g transform="matrix(0.660985,-0.83385,0.675301,0.660985,13.1503,1417.82)">
            <ellipse cx="1412.49" cy="565.124" rx="47.314" ry="53.944" style="fill:rgb(103,140,187);"/>
        </g>
        <g transform="matrix(-0.563707,-0.84277,0.779123,-0.521135,2150.49,2320.17)">
            <ellipse cx="1412.49" cy="565.124" rx="47.314" ry="53.944" style="fill:rgb(103,140,187);"/>
        </g>
        <g transform="matrix(1,0,0,1,-42.8114,-346.651)">
            <rect x="1722.12" y="1156.44" width="62.395" height="45.183" style="fill:rgb(66,66,66);"/>
        </g>
        <g transform="matrix(0.181521,-0.66553,1.09553,0.258571,407.99,1437.64)">
            <path d="M1506.32,709.299L1397.4,709.299L1424.63,629.254L1479.09,629.254L1506.32,709.299Z" style="fill:rgb(112,144,187);"/>
        </g>
        <g transform="matrix(-0.518536,-0.523258,0.82806,-0.931599,2063.44,2164.93)">
            <path d="M1506.32,709.299L1397.4,709.299L1424.63,629.254L1479.09,629.254L1506.32,709.299Z" style="fill:rgb(112,144,187);"/>
        </g>
    </g>
    <g transform="matrix(0.875044,0,0,0.668072,136.077,211.064)">
        <path d="M1339.31,1043.44C1339.31,1029.54 1335.1,1016.22 1327.6,1006.39C1320.1,996.569 1309.92,991.049 1299.31,991.049C1161.31,991.049 706.034,991.049 568.034,991.049C557.426,991.049 547.252,996.569 539.751,1006.39C532.25,1016.22 528.036,1029.54 528.036,1043.44C528.036,1113.63 528.036,1229.47 528.036,1229.47L1339.31,1229.47L1339.31,1043.44Z" style="fill:rgb(155,143,143);"/>
    </g>
    <g transform="matrix(0.998296,0,0,1.35372,-6.76353,-259.286)">
        <rect x="1156.79" y="763.993" width="130.347" height="73.3" style="stroke:rgb(105,105,105);stroke-width:0.84px;"/>
    </g>
    <g transform="matrix(0.182658,0.11598,-0.519951,0.818875,1045.25,-247.74)">
        <path d="M378.833,731.019L432.849,928.114L324.817,928.114L378.833,731.019Z"/>
    </g>
    <g transform="matrix(0.148168,0.0940803,-0.265833,0.418663,1408.7,355.283)">
        <path d="M378.833,731.019L432.849,928.114L324.817,928.114L378.833,731.019Z"/>
    </g>
    <g transform="matrix(0.150177,-0.0908381,0.256672,0.424341,910.145,428.62)">
        <path d="M378.833,731.019L432.849,928.114L324.817,928.114L378.833,731.019Z"/>
    </g>
    <g transform="matrix(1,0,0,1,329.764,-25.8774)">
        <rect x="302.676" y="613.377" width="23.648" height="286.473" style="fill:rgb(155,143,143);"/>
    </g>
    <g transform="matrix(0.515977,-0.856602,0.856602,0.515977,-22.747,792.81)">
        <path d="M580.301,325.334C540.669,334.701 508.492,381.84 508.492,437.731C508.492,493.623 540.669,540.762 580.301,550.128C567.09,522.029 556.365,481.339 556.365,437.731C556.365,394.124 567.09,353.433 580.301,325.334Z" style="fill:rgb(155,143,143);"/>
    </g>
    <g transform="matrix(-0.529925,-0.396842,-0.330108,0.440811,1236.29,534.467)">
        <ellipse cx="732.272" cy="331.428" rx="12.113" ry="21.106" style="fill:rgb(105,105,105);"/>
    </g>
    <g transform="matrix(-0.207893,-0.00447724,0.0043871,-0.203707,758.17,416.101)">
        <path d="M172.887,229.366L215.052,388.397L156.257,569.785L199.111,713.068L85.936,801.933L143.764,697.265L95.845,596.402L172.338,408.313L172.887,229.366Z" style="fill:rgb(255,210,0);"/>
    </g>
    <g transform="matrix(-0.131502,-0.134397,0.134047,-0.13116,748.462,448.28)">
        <path d="M172.887,229.366L215.052,388.397L156.257,569.785L199.111,713.068L85.936,801.933L143.764,697.265L95.845,596.402L172.338,408.313L172.887,229.366Z" style="fill:rgb(255,210,0);"/>
    </g>
    <g transform="matrix(0.00450667,-0.143247,0.176339,-0.00545681,744.119,438.539)">
        <path d="M172.887,229.366L215.052,388.397L156.257,569.785L199.111,713.068L85.936,801.933L143.764,697.265L95.845,596.402L172.338,408.313L172.887,229.366Z" style="fill:rgb(255,210,0);"/>
    </g>
    <g transform="matrix(0.0660552,0.10291,0.106816,-0.078377,1232.24,759.49)">
        <path d="M172.887,229.366L215.052,388.397L156.257,569.785L199.111,713.068L85.936,801.933L143.764,697.265L95.845,596.402L172.338,408.313L172.887,229.366Z" style="fill:rgb(255,210,0);"/>
    </g>
    <g transform="matrix(0.0926239,-0.0798411,-0.092589,-0.0947619,1173.51,791.974)">
        <path d="M172.887,229.366L215.052,388.397L156.257,569.785L199.111,713.068L85.936,801.933L143.764,697.265L95.845,596.402L172.338,408.313L172.887,229.366Z" style="fill:rgb(255,210,0);"/>
    </g>
    <path d="M1215.74,855.283C1201.22,859.585 1193.82,935.464 1215.17,946.136C1240.58,958.844 1278.26,931.553 1295.02,965.085C1300.69,976.428 1313.12,999.276 1304.5,1016.52C1301.93,1021.65 1286.57,1028.7 1292.31,1028.7" style="fill:none;stroke:black;stroke-width:1px;"/>
    <path d="M660.375,769.633C660.2,770.332 660.237,768.197 660.237,767.476C660.237,756.795 640.669,757.578 633.167,768.83C622.448,784.909 613.472,806.036 637.228,810.788C638.068,810.955 649.859,813.947 650.763,812.141C658.712,796.242 630.334,786.93 622.339,818.908C613.624,853.772 677.988,838.492 658.884,827.029C628.052,808.531 605.768,867.975 637.228,878.462C645.38,881.179 659.698,877.108 668.358,877.108" style="fill:none;stroke:black;stroke-width:1px;"/>
</svg>
