<?xml version="1.0" encoding="UTF-8" standalone="no"?>
<!DOCTYPE svg PUBLIC "-//W3C//DTD SVG 1.1//EN" "http://www.w3.org/Graphics/SVG/1.1/DTD/svg11.dtd">
<svg width="100%" height="100%" viewBox="0 0 1024 1024" version="1.1" xmlns="http://www.w3.org/2000/svg" xmlns:xlink="http://www.w3.org/1999/xlink" xml:space="preserve" xmlns:serif="http://www.serif.com/" style="fill-rule:evenodd;clip-rule:evenodd;stroke-linecap:round;stroke-linejoin:round;stroke-miterlimit:1.5;">
    <g transform="matrix(1,0,0,1,-11.4511,3.1826)">
        <g>
            <g transform="matrix(1.52595,0,0,1.48243,-256.314,-166.428)">
                <path d="M823.855,370.994C823.855,292.507 761.95,228.785 685.7,228.785L326.804,228.785C250.554,228.785 188.65,292.507 188.65,370.994L188.65,655.414C188.65,733.902 250.554,797.624 326.804,797.624L685.7,797.624C761.95,797.624 823.855,733.902 823.855,655.414L823.855,370.994Z" style="fill:rgb(237,200,9);stroke:rgb(237,200,9);stroke-width:13.38px;"/>
            </g>
            <g transform="matrix(1.52595,0,0,1.48243,-256.314,-319.407)">
                <path d="M823.855,370.994C823.855,292.507 761.95,228.785 685.7,228.785L326.804,228.785C250.554,228.785 188.65,292.507 188.65,370.994L188.65,655.414C188.65,733.902 250.554,797.624 326.804,797.624L685.7,797.624C761.95,797.624 823.855,733.902 823.855,655.414L823.855,370.994Z" style="fill:rgb(211,144,52);stroke:rgb(237,200,9);stroke-width:13.38px;"/>
            </g>
            <path d="M78.535,649.859C78.365,650.021 78.196,650.183 78.026,650.345" style="fill:rgb(211,144,52);stroke:rgb(237,200,9);stroke-width:20.13px;"/>
            <path d="M84.827,689.079C36.186,715.185 173.966,833.449 175.503,810.635" style="fill:rgb(211,144,52);stroke:rgb(237,200,9);stroke-width:20.13px;"/>
            <path d="M691.477,64.235C689.871,63.833 706.081,62.616 711.648,62.616C725.211,62.616 761.983,60.205 761.983,65.577" style="fill:rgb(211,144,52);stroke:rgb(237,200,9);stroke-width:20.13px;"/>
            <path d="M833.737,66.005C832.623,65.318 833.315,65.577 831.563,65.577" style="fill:rgb(211,144,52);stroke:rgb(237,200,9);stroke-width:20.13px;"/>
        </g>
        <g transform="matrix(1.68582,0,0,3.1321,-383.941,-1567.55)">
            <path d="M487.654,540.295C538.284,595.152 367.29,584.771 367.29,650.009C367.29,697.035 438.224,735.214 525.594,735.214C612.963,735.214 683.897,697.035 683.897,650.009C683.897,584.771 585.775,552.55 487.654,540.295Z" style="fill:rgb(214,57,41);stroke:rgb(232,109,4);stroke-width:8.08px;"/>
        </g>
        <g transform="matrix(1.04721,0,0,2.07712,-20.3961,-791.912)">
            <path d="M487.654,540.295C448.722,551.713 367.29,586.958 367.29,655.403C367.29,699.452 438.224,735.214 525.594,735.214C612.963,735.214 683.897,699.452 683.897,655.403C683.897,586.958 479.444,577.527 487.654,540.295Z" style="fill:rgb(214,198,41);stroke:rgb(232,109,4);stroke-width:12.36px;"/>
        </g>
        <g transform="matrix(0.643709,0,0,1.2461,207.93,-180.935)">
            <path d="M439.736,540.295C514.325,596.867 367.29,606.861 367.29,653.438C367.29,698.571 438.224,735.214 525.594,735.214C612.963,735.214 683.897,698.571 683.897,653.438C683.897,606.861 561.816,555.979 439.736,540.295Z" style="fill:rgb(214,57,41);stroke:rgb(232,109,4);stroke-width:20.5px;"/>
        </g>
    </g>
</svg>
