<?xml version="1.0" encoding="UTF-8" standalone="no"?>
<!DOCTYPE svg PUBLIC "-//W3C//DTD SVG 1.1//EN" "http://www.w3.org/Graphics/SVG/1.1/DTD/svg11.dtd">
<svg width="100%" height="100%" viewBox="0 0 2048 1536" version="1.1" xmlns="http://www.w3.org/2000/svg" xmlns:xlink="http://www.w3.org/1999/xlink" xml:space="preserve" xmlns:serif="http://www.serif.com/" style="fill-rule:evenodd;clip-rule:evenodd;stroke-linejoin:round;stroke-miterlimit:2;">
    <g>
        <g transform="matrix(1.08557,0,0,2.4911,248.026,-1611.83)">
            <path d="M1014.66,1107.13C1014.66,1107.13 955.616,1068.87 873.331,1045.92C824.468,1032.29 755.979,1028.87 718.065,1028.87C717.424,1028.87 716.773,1028.87 716.114,1028.87C677.39,1028.94 607.339,1031.34 555.847,1044.93C469.011,1067.84 404.078,1107.13 404.078,1107.13C404.078,1107.13 492.471,995.577 556.723,977.371C596.523,966.093 657.077,960.696 716.741,961.181C771.491,961.625 825.49,967.022 862.012,977.371C926.264,995.577 1014.66,1107.13 1014.66,1107.13Z" style="fill:rgb(177,47,47);"/>
        </g>
        <g transform="matrix(1.08557,0,0,0.862861,285.766,-18.4837)">
            <path d="M661.481,289.537C661.481,289.537 832.11,489.829 849.003,613.435C868.319,754.764 777.376,1137.51 777.376,1137.51L545.586,1137.51C545.586,1137.51 454.643,754.764 473.959,613.435C478.193,582.459 492.081,546.667 510.519,510.419C565.656,402.021 661.481,289.537 661.481,289.537Z" style="fill:rgb(226,203,203);"/>
        </g>
        <g transform="matrix(0.589648,0,0,0.862861,708.143,-18.4837)">
            <path d="M508.535,302.178C508.535,302.178 832.11,489.829 849.003,613.435C868.319,754.764 777.376,1137.51 777.376,1137.51L545.586,1137.51C606.808,1161.89 654.722,771.669 620.105,608.897C594.153,486.871 508.535,302.178 508.535,302.178Z" style="fill:rgb(222,188,188);"/>
        </g>
        <g transform="matrix(1.08096,0,0,0.760762,302.101,-45.1457)">
            <path d="M546.293,517.833C576.513,466.743 611.371,416.095 648.558,365.67L645.429,370.369C616.726,418.634 697.795,458.066 668.522,507.557L745.534,508.819L546.293,517.833Z" style="fill:rgb(206,16,16);"/>
        </g>
        <g transform="matrix(1.08096,0,0,0.760762,302.101,-45.1457)">
            <path d="M654.613,373.251C668.499,391.033 680.675,409.282 693.094,427.539C708.987,450.903 723.186,475.413 738.77,498.857L745.534,508.819L668.522,507.557C698.741,456.467 611.371,416.095 648.558,365.67L654.613,373.251Z" style="fill:rgb(177,47,47);"/>
        </g>
        <g transform="matrix(1.34972,0,0,0.876138,75.4736,-32.8956)">
            <path d="M686.965,539.203C747.215,539.203 796.13,585.664 796.13,642.889C796.13,700.115 747.215,746.576 686.965,746.576C626.716,746.576 577.801,700.115 577.801,642.889C577.801,585.664 626.716,539.203 686.965,539.203ZM686.965,549.118C741.454,549.118 785.691,591.136 785.691,642.889C785.691,694.643 741.454,736.661 686.965,736.661C632.477,736.661 588.239,694.643 588.239,642.889C588.239,591.136 632.477,549.118 686.965,549.118Z" style="fill:rgb(206,16,16);"/>
        </g>
        <g transform="matrix(0.860628,0,0,0.460202,417.94,410.363)">
            <path d="M686.965,539.203C747.215,539.203 796.13,585.664 796.13,642.889C796.13,700.115 747.215,746.576 686.965,746.576C626.716,746.576 577.801,700.115 577.801,642.889C577.801,585.664 626.716,539.203 686.965,539.203ZM686.965,549.118C741.454,549.118 785.691,591.136 785.691,642.889C785.691,694.643 741.454,736.661 686.965,736.661C632.477,736.661 588.239,694.643 588.239,642.889C588.239,591.136 632.477,549.118 686.965,549.118Z" style="fill:rgb(206,16,16);"/>
        </g>
        <g transform="matrix(1.62612,0,0,1.48619,-81.5191,-430.231)">
            <ellipse cx="667.589" cy="646.151" rx="83.014" ry="55.027" style="fill:rgb(141,181,194);"/>
        </g>
        <g transform="matrix(1.03687,0,0,0.780639,317.835,201.657)">
            <ellipse cx="667.589" cy="646.151" rx="83.014" ry="55.027" style="fill:rgb(12,17,19);"/>
        </g>
        <g transform="matrix(1.54915,0,0,0.83648,-52.527,11.5248)">
            <path d="M665.627,545.767C630.24,545.767 601.511,578.585 601.511,619.007C601.511,659.43 630.24,692.248 665.627,692.248C656.78,673.938 649.598,647.423 649.598,619.007C649.598,590.592 656.78,564.077 665.627,545.767Z" style="fill:rgb(160,213,230);"/>
        </g>
        <g transform="matrix(0.836734,0,0,0.401013,431.643,454.986)">
            <path d="M665.627,545.767C630.24,545.767 601.511,578.585 601.511,619.007C601.511,659.43 630.24,692.248 665.627,692.248C656.78,673.938 649.598,647.423 649.598,619.007C649.598,590.592 656.78,564.077 665.627,545.767Z" style="fill:rgb(160,213,230);"/>
        </g>
        <g transform="matrix(-1.05551,0,0,-0.857097,1759.03,2091.74)">
            <path d="M832.839,1316.01L561.332,1316.01L629.209,1182.99L764.962,1182.99L832.839,1316.01Z" style="fill:rgb(193,58,58);"/>
        </g>
        <g transform="matrix(-0.536735,0,0,-0.857097,1467.83,2091.74)">
            <path d="M800.842,1316.4L561.332,1316.01L682.87,1183.32L792.45,1184.17L800.842,1316.4Z" style="fill:rgb(147,41,41);"/>
        </g>
        <g transform="matrix(1.08557,0,0,1.59238,-116.032,-724.29)">
            <path d="M1088.53,973.081L1023.07,972.411L1042.3,1174.13L1088.53,973.081Z"/>
        </g>
        <g transform="matrix(0.00248109,0.350296,-1.77042,0.00744523,2909.58,391.576)">
            <rect x="1042.3" y="973.422" width="13.85" height="200.709"/>
        </g>
        <g transform="matrix(-0.047352,-0.835684,2.06461,-0.0694589,-1162.4,1381.31)">
            <path d="M1065.61,993.863L1050.84,990.552C1050.84,990.552 1080.42,1039.52 1080.42,1072.97C1080.42,1106.42 1052.93,1154.92 1052.93,1154.92L1065.72,1152.2C1065.72,1152.2 1092.32,1106.36 1092.32,1072.91C1092.32,1039.46 1065.61,993.863 1065.61,993.863Z" style="fill:rgb(177,47,47);"/>
        </g>
    </g>
</svg>
