<?xml version="1.0" encoding="UTF-8" standalone="no"?>
<!DOCTYPE svg PUBLIC "-//W3C//DTD SVG 1.1//EN" "http://www.w3.org/Graphics/SVG/1.1/DTD/svg11.dtd">
<svg width="100%" height="100%" viewBox="0 0 1024 1024" version="1.1" xmlns="http://www.w3.org/2000/svg" xmlns:xlink="http://www.w3.org/1999/xlink" xml:space="preserve" xmlns:serif="http://www.serif.com/" style="fill-rule:evenodd;clip-rule:evenodd;stroke-linecap:round;stroke-linejoin:round;stroke-miterlimit:1.5;">
    <g>
        <g>
            <g>
                <g transform="matrix(1.52595,0,0,1.48243,-256.314,-166.428)">
                    <path d="M823.855,370.994C823.855,292.507 761.95,228.785 685.7,228.785L326.804,228.785C250.554,228.785 188.65,292.507 188.65,370.994L188.65,655.414C188.65,733.902 250.554,797.624 326.804,797.624L685.7,797.624C761.95,797.624 823.855,733.902 823.855,655.414L823.855,370.994Z" style="fill:rgb(32,227,70);stroke:rgb(32,227,70);stroke-width:13.38px;"/>
                </g>
                <g transform="matrix(1.52595,0,0,1.48243,-256.314,-319.407)">
                    <path d="M823.855,370.994C823.855,292.507 761.95,228.785 685.7,228.785L326.804,228.785C250.554,228.785 188.65,292.507 188.65,370.994L188.65,655.414C188.65,733.902 250.554,797.624 326.804,797.624L685.7,797.624C761.95,797.624 823.855,733.902 823.855,655.414L823.855,370.994Z" style="fill:rgb(5,96,23);stroke:rgb(32,227,70);stroke-width:13.38px;"/>
                </g>
                <path d="M78.535,649.859C78.365,650.021 78.196,650.183 78.026,650.345" style="fill:none;stroke:rgb(32,227,70);stroke-width:20.13px;"/>
                <path d="M84.827,689.079C36.186,715.185 173.966,833.449 175.503,810.635" style="fill:none;stroke:rgb(32,227,70);stroke-width:20.13px;"/>
                <g transform="matrix(1.22418,0,0,1.38658,-110.308,-250.161)">
                    <path d="M517.41,265.779C682.192,265.779 815.975,366.834 815.975,491.307C815.975,615.779 682.192,716.834 517.41,716.834C352.628,716.834 218.846,615.779 218.846,491.307C218.846,366.834 352.628,265.779 517.41,265.779ZM517.41,378.543C599.801,378.543 666.692,429.071 666.692,491.307C666.692,553.543 599.801,604.071 517.41,604.071C435.019,604.071 368.128,553.543 368.128,491.307C368.128,429.071 435.019,378.543 517.41,378.543Z" style="fill:rgb(5,96,23);stroke:rgb(32,227,70);stroke-width:15.39px;"/>
                </g>
                <path d="M691.477,64.235C689.871,63.833 706.081,62.616 711.648,62.616C725.211,62.616 761.983,60.205 761.983,65.577" style="fill:rgb(32,227,70);stroke:rgb(32,227,70);stroke-width:20.13px;"/>
                <path d="M833.737,66.005C832.623,65.318 833.315,65.577 831.563,65.577" style="fill:none;stroke:rgb(32,227,70);stroke-width:20.13px;"/>
            </g>
            <path d="M257.114,538.348C256.696,539.171 256.853,538.156 256.853,537.819" style="fill:none;stroke:rgb(32,227,70);stroke-width:20.13px;"/>
            <path d="M264.77,580.203C267.604,611.365 326.822,656.282 351.787,656.282" style="fill:none;stroke:rgb(32,227,70);stroke-width:20.13px;"/>
            <g transform="matrix(1,0,0,1,13.8784,9.45587)">
                <path d="M819.652,367.151C819.513,366.604 799.856,313.392 801.042,315.765C804.824,323.328 797.161,308.002 801.042,315.765C813.307,340.295 826.062,382.052 826.062,409.59" style="fill:none;stroke:rgb(32,227,70);stroke-width:20.13px;"/>
            </g>
            <g transform="matrix(9.89359,0,0,4.32702,-7232.03,-1456.69)">
                <path d="M815.865,444.547C815.49,445.351 815.637,444.34 815.637,443.993" style="fill:none;stroke:rgb(32,227,70);stroke-width:2.64px;"/>
            </g>
            <path d="M149.768,339.392C149.053,338.636 136.835,388.077 135.922,398.123C134.393,414.961 136.981,473.061 140.166,490.07C147.268,528.006 146.968,524.303 162.767,555.9C180.332,591.03 209.975,635.054 250.142,670.014C271.503,688.605 302.239,704.991 321.587,715.322C346.634,728.697 367.527,735.979 392.379,748.405C398.317,751.374 410.834,752.595 416.357,753.618C442.035,758.372 485.325,767.322 516.601,763.579" style="fill:none;stroke:rgb(44,76,50);stroke-width:20.33px;"/>
            <path d="M364.72,410.242C360.515,413.606 364.72,404.986 364.72,410.242C364.72,426.024 361.457,435.204 365.513,453.38C369.398,470.791 380.391,497.282 389.97,508.894C404.273,526.232 433.062,546.978 445.026,553.147C460.453,561.102 486.889,569.44 532.108,568.084" style="fill:none;stroke:rgb(34,70,41);stroke-width:20.33px;"/>
        </g>
        <g transform="matrix(-1.01436,-0.248253,0.206671,-0.844457,1128.41,681.732)">
            <path d="M607.626,145.649C643.942,243.98 678.691,342.638 713.266,441.332C713.266,441.332 644.904,475.642 606.827,475.642C568.751,475.642 518.325,450.044 518.325,450.044L607.626,145.649Z" style="fill:rgb(79,227,32);stroke:rgb(79,227,32);stroke-width:23.52px;"/>
        </g>
        <path d="M532.843,320.395C532.978,320.403 533.113,320.411 533.248,320.418" style="fill:none;stroke:rgb(79,227,32);stroke-width:22.6px;"/>
        <path d="M534.621,322.033C570.639,302.94 585.909,335.216 582.36,335.216" style="fill:none;stroke:rgb(79,227,32);stroke-width:22.6px;"/>
        <path d="M517.585,217.452C556.741,202.34 578.347,210.728 582.204,211.313C607.568,215.162 639.46,242.059 641.363,246.056" style="fill:none;stroke:rgb(79,227,32);stroke-width:22.6px;"/>
    </g>
</svg>
