<?xml version="1.0" encoding="UTF-8" standalone="no"?>
<!DOCTYPE svg PUBLIC "-//W3C//DTD SVG 1.1//EN" "http://www.w3.org/Graphics/SVG/1.1/DTD/svg11.dtd">
<svg width="100%" height="100%" viewBox="0 0 1024 1024" version="1.1" xmlns="http://www.w3.org/2000/svg" xmlns:xlink="http://www.w3.org/1999/xlink" xml:space="preserve" xmlns:serif="http://www.serif.com/" style="fill-rule:evenodd;clip-rule:evenodd;stroke-linecap:round;stroke-linejoin:round;stroke-miterlimit:1.5;">
    <g>
        <g>
            <g transform="matrix(1,0,0,1,-9.07977,-7.19205)">
                <g>
                    <g>
                        <g>
                            <g transform="matrix(1.52595,0,0,1.48243,-256.314,-166.428)">
                                <path d="M823.855,370.994C823.855,292.507 761.95,228.785 685.7,228.785L326.804,228.785C250.554,228.785 188.65,292.507 188.65,370.994L188.65,655.414C188.65,733.902 250.554,797.624 326.804,797.624L685.7,797.624C761.95,797.624 823.855,733.902 823.855,655.414L823.855,370.994Z" style="fill:rgb(41,178,222);stroke:rgb(41,178,222);stroke-width:13.38px;"/>
                            </g>
                            <g transform="matrix(1.52595,0,0,1.48243,-256.314,-319.407)">
                                <path d="M823.855,370.994C823.855,292.507 761.95,228.785 685.7,228.785L326.804,228.785C250.554,228.785 188.65,292.507 188.65,370.994L188.65,655.414C188.65,733.902 250.554,797.624 326.804,797.624L685.7,797.624C761.95,797.624 823.855,733.902 823.855,655.414L823.855,370.994Z" style="fill:rgb(26,108,135);stroke:rgb(41,178,222);stroke-width:13.38px;"/>
                            </g>
                            <path d="M78.535,649.859C78.365,650.021 78.196,650.183 78.026,650.345" style="fill:none;stroke:rgb(105,186,201);stroke-width:20.13px;"/>
                            <path d="M84.827,689.079C36.186,715.185 173.966,833.449 175.503,810.635" style="fill:none;stroke:rgb(105,186,201);stroke-width:20.13px;"/>
                            <path d="M691.477,64.235C689.871,63.833 706.081,62.616 711.648,62.616C725.211,62.616 761.983,60.205 761.983,65.577" style="fill:none;stroke:rgb(105,186,201);stroke-width:20.13px;"/>
                            <path d="M833.737,66.005C832.623,65.318 833.315,65.577 831.563,65.577" style="fill:none;stroke:rgb(105,186,201);stroke-width:20.13px;"/>
                        </g>
                    </g>
                </g>
            </g>
            <g transform="matrix(0.893979,-0.884331,0.806967,0.815771,-114.767,291.71)">
                <ellipse cx="292.433" cy="197.905" rx="11.295" ry="15.574" style="stroke:black;stroke-width:18.78px;"/>
            </g>
            <g transform="matrix(1,0,0,0.889902,0.499231,82.7664)">
                <rect x="712.661" y="583.909" width="105.275" height="130.011" style="stroke:black;stroke-width:23.88px;"/>
            </g>
            <g transform="matrix(0.8216,0,0,0.588362,549.16,378.467)">
                <path d="M301.732,552.275C301.732,538.526 293.738,527.363 283.892,527.363L248.213,527.363C238.366,527.363 230.373,538.526 230.373,552.275L230.373,748.705C230.373,762.454 238.366,773.617 248.213,773.617L283.892,773.617C293.738,773.617 301.732,762.454 301.732,748.705L301.732,552.275Z" style="stroke:black;stroke-width:31.63px;"/>
            </g>
            <g transform="matrix(-0.0703375,0.244173,0.585317,0.168609,-158.219,134.619)">
                <path d="M94.566,437.525L-7.657,590.23L116.07,670.537L38.447,684.02L-90.603,749.099L16.286,660.989L-95.126,590.184L94.566,437.525Z" style="fill:rgb(214,198,41);stroke:rgb(214,198,41);stroke-width:48.43px;"/>
            </g>
            <g transform="matrix(0.150909,0.00335729,-0.00898304,0.403784,357.579,-136.908)">
                <path d="M94.566,437.525L-7.657,590.23L116.07,670.537L38.447,684.02L-90.603,749.099L16.286,660.989L-95.126,590.184L94.566,437.525Z" style="fill:rgb(214,198,41);stroke:rgb(214,198,41);stroke-width:74.13px;"/>
            </g>
            <g transform="matrix(0.130191,-0.297555,0.527207,0.0811387,-114.554,64.8473)">
                <path d="M94.566,437.525L-7.657,590.23L116.07,670.537L38.447,684.02L-90.603,749.099L16.286,660.989L-95.126,590.184L94.566,437.525Z" style="fill:rgb(214,198,41);stroke:rgb(214,198,41);stroke-width:46.18px;"/>
            </g>
            <g transform="matrix(0.0639393,-0.0758025,1.21593,1.02563,41.1567,33.6143)">
                <path d="M485.62,210.554L630.226,454.109L341.015,454.109L485.62,210.554Z" style="stroke:black;stroke-width:20.05px;"/>
            </g>
            <g transform="matrix(-0.939177,-0.885009,1.15626,-1.22703,689.4,1367.56)">
                <path d="M547.057,168.548C437.172,191.503 347.96,267.551 347.96,355.9C347.96,444.25 437.172,520.298 547.057,543.253C529.811,487.001 515.809,422.416 515.809,355.9C515.809,289.385 529.811,224.8 547.057,168.548Z" style="fill:rgb(128,128,128);stroke:rgb(128,128,128);stroke-width:15.05px;"/>
            </g>
        </g>
    </g>
</svg>
