<?xml version="1.0" encoding="UTF-8" standalone="no"?>
<!DOCTYPE svg PUBLIC "-//W3C//DTD SVG 1.1//EN" "http://www.w3.org/Graphics/SVG/1.1/DTD/svg11.dtd">
<svg width="100%" height="100%" viewBox="0 0 2048 1536" version="1.1" xmlns="http://www.w3.org/2000/svg" xmlns:xlink="http://www.w3.org/1999/xlink" xml:space="preserve" xmlns:serif="http://www.serif.com/" style="fill-rule:evenodd;clip-rule:evenodd;stroke-linecap:round;stroke-linejoin:round;stroke-miterlimit:1.5;">
    <g transform="matrix(1.20261,0,0,1.3272,-216.545,-221.324)">
        <rect x="134.911" y="130.849" width="1794.59" height="1298.46" style="fill:url(#_Linear1);stroke:rgb(1,0,6);stroke-width:20.22px;"/>
    </g>
    <path d="M1238.2,1067.19L1248.24,1091L1280.75,1091L1254.45,1105.72L1264.5,1129.53L1238.2,1114.82L1211.9,1129.53L1221.94,1105.72L1195.64,1091L1228.15,1091L1238.2,1067.19Z" style="fill:rgb(29,211,22);stroke:rgb(247,67,193);stroke-width:25.61px;"/>
    <path d="M817.24,670.534L824.582,693.678L848.341,693.678L829.12,707.983L836.462,731.127L817.24,716.823L798.019,731.127L805.361,707.983L786.139,693.678L809.898,693.678L817.24,670.534Z" style="fill:none;stroke:rgb(247,205,67);stroke-width:25.61px;"/>
    <path d="M751.128,908.419L759.137,932.91L785.055,932.91L764.087,948.047L772.096,972.538L751.128,957.402L730.16,972.538L738.169,948.047L717.201,932.91L743.119,932.91L751.128,908.419Z" style="fill:none;stroke:rgb(224,207,152);stroke-width:25.61px;"/>
    <path d="M1331.61,118.774L1338.95,135.151L1362.71,135.151L1343.49,145.273L1350.83,161.651L1331.61,151.529L1312.39,161.651L1319.74,145.273L1300.52,135.151L1324.27,135.151L1331.61,118.774Z" style="fill:none;stroke:rgb(247,205,67);stroke-width:25.61px;"/>
    <path d="M1717.48,177.631L1724.28,203.47L1746.29,203.47L1728.48,219.439L1735.29,245.277L1717.48,229.308L1699.67,245.277L1706.47,219.439L1688.66,203.47L1710.68,203.47L1717.48,177.631Z" style="fill:none;stroke:rgb(247,67,193);stroke-width:25.61px;"/>
    <path d="M1746.52,632.948L1752.68,646.731L1772.61,646.731L1756.49,655.25L1762.64,669.034L1746.52,660.515L1730.4,669.034L1736.56,655.25L1720.43,646.731L1740.36,646.731L1746.52,632.948Z" style="fill:none;stroke:rgb(29,211,22);stroke-width:25.61px;"/>
    <path d="M1629.04,943.165L1635.3,959.909L1655.55,959.909L1639.17,970.257L1645.42,987L1629.04,976.652L1612.66,987L1618.92,970.257L1602.53,959.909L1622.78,959.909L1629.04,943.165Z" style="fill:none;stroke:rgb(247,124,67);stroke-width:25.61px;"/>
    <g transform="matrix(0.310347,-0.204041,0.205619,0.338694,1221.86,555.328)">
        <path d="M1629.04,943.165L1635.3,959.909L1655.55,959.909L1639.17,970.257L1645.42,987L1629.04,976.652L1612.66,987L1618.92,970.257L1602.53,959.909L1622.78,959.909L1629.04,943.165Z" style="fill:none;stroke:rgb(247,124,67);stroke-width:67.92px;"/>
    </g>
    <path d="M1323.96,636.413L1329.91,648.467L1349.15,648.467L1333.58,655.917L1339.53,667.972L1323.96,660.522L1308.39,667.972L1314.34,655.917L1298.77,648.467L1318.01,648.467L1323.96,636.413Z" style="fill:none;stroke:rgb(247,205,67);stroke-width:25.61px;"/>
    <g transform="matrix(0.310347,-0.204041,0.205619,0.338694,1221.86,555.328)">
        <path d="M1323.96,636.413L1329.91,648.467L1349.15,648.467L1333.58,655.917L1339.53,667.972L1323.96,660.522L1308.39,667.972L1314.34,655.917L1298.77,648.467L1318.01,648.467L1323.96,636.413Z" style="fill:none;stroke:rgb(247,205,67);stroke-width:67.92px;"/>
    </g>
    <path d="M785.604,1366.62L790.713,1375.4L807.247,1375.4L793.871,1380.83L798.98,1389.61L785.604,1384.18L772.227,1389.61L777.337,1380.83L763.96,1375.4L780.494,1375.4L785.604,1366.62Z" style="fill:none;stroke:rgb(247,205,67);stroke-width:25.61px;"/>
    <g transform="matrix(0.310347,-0.204041,0.205619,0.338694,1221.86,555.328)">
        <path d="M785.604,1366.62L790.713,1375.4L807.247,1375.4L793.871,1380.83L798.98,1389.61L785.604,1384.18L772.227,1389.61L777.337,1380.83L763.96,1375.4L780.494,1375.4L785.604,1366.62Z" style="fill:none;stroke:rgb(247,205,67);stroke-width:67.92px;"/>
    </g>
    <g transform="matrix(1,0,0,1.99031,0,-321.605)">
        <path d="M1077.4,324.751L1085.8,340.198L1112.99,340.198L1091,349.744L1099.4,365.191L1077.4,355.644L1055.4,365.191L1063.81,349.744L1041.81,340.198L1069,340.198L1077.4,324.751Z" style="fill:rgb(4,3,28);stroke:rgb(131,125,106);stroke-width:16.26px;"/>
    </g>
    <g transform="matrix(0.310347,-0.204041,0.409246,0.674107,1155.73,446.402)">
        <path d="M1077.4,324.751L1085.8,340.198L1112.99,340.198L1091,349.744L1099.4,365.191L1077.4,355.644L1055.4,365.191L1063.81,349.744L1041.81,340.198L1069,340.198L1077.4,324.751Z" style="fill:rgb(4,3,28);stroke:rgb(131,125,106);stroke-width:42.14px;"/>
    </g>
    <g transform="matrix(1.31645,0.204269,-0.499457,3.21884,452.869,-2113.08)">
        <path d="M88.204,944.802L93.607,949.274L111.094,949.274L96.947,952.038L102.351,956.511L88.204,953.747L74.056,956.511L79.46,952.038L65.313,949.274L82.8,949.274L88.204,944.802Z" style="fill:rgb(28,7,3);stroke:rgb(67,94,247);stroke-width:10.29px;"/>
    </g>
    <g transform="matrix(0.450558,-0.199425,0.50685,1.19211,927.919,-252.763)">
        <path d="M88.204,944.802L93.607,949.274L111.094,949.274L96.947,952.038L102.351,956.511L88.204,953.747L74.056,956.511L79.46,952.038L65.313,949.274L82.8,949.274L88.204,944.802Z" style="fill:rgb(28,7,3);stroke:rgb(67,94,247);stroke-width:26.26px;"/>
    </g>
    <g transform="matrix(1.31645,0.204269,-0.499457,3.21884,2301.74,-2232.16)">
        <path d="M88.204,944.802L93.607,949.274L111.094,949.274L96.947,952.038L102.351,956.511L88.204,953.747L74.056,956.511L79.46,952.038L65.313,949.274L82.8,949.274L88.204,944.802Z" style="fill:rgb(28,7,3);stroke:rgb(60,60,60);stroke-width:10.29px;"/>
    </g>
    <g transform="matrix(0.450558,-0.199425,0.50685,1.19211,1477.23,-670.34)">
        <path d="M88.204,944.802L93.607,949.274L111.094,949.274L96.947,952.038L102.351,956.511L88.204,953.747L74.056,956.511L79.46,952.038L65.313,949.274L82.8,949.274L88.204,944.802Z" style="fill:rgb(28,7,3);stroke:rgb(60,60,60);stroke-width:26.26px;"/>
    </g>
    <path d="M190.952,1417.88L196.799,1433.95L215.719,1433.95L200.412,1443.89L206.259,1459.97L190.952,1450.03L175.645,1459.97L181.491,1443.89L166.184,1433.95L185.105,1433.95L190.952,1417.88Z" style="fill:rgb(4,3,28);stroke:rgb(247,205,67);stroke-width:25.61px;"/>
    <path d="M756.41,62.371L760.467,70.568L773.596,70.568L762.974,75.634L767.031,83.831L756.41,78.765L745.788,83.831L749.845,75.634L739.223,70.568L752.352,70.568L756.41,62.371Z" style="fill:rgb(4,3,28);stroke:rgb(247,67,113);stroke-width:25.61px;"/>
    <g id="Layer1">
    </g>
    <g transform="matrix(1.13563,0,0,0.9333,-67.6044,-159.042)">
        <ellipse cx="404.407" cy="513.03" rx="270.438" ry="301.526" style="fill:rgb(255,221,0);stroke:rgb(211,191,74);stroke-width:24.64px;"/>
    </g>
    <g transform="matrix(0.358483,0.218495,-0.218495,0.358483,1751.41,1145.89)">
        <g transform="matrix(1.13563,0,0,0.9333,-67.6044,-159.042)">
            <ellipse cx="404.407" cy="513.03" rx="270.438" ry="301.526" style="fill:rgb(237,219,219);stroke:rgb(180,180,180);stroke-width:58.69px;"/>
        </g>
        <g transform="matrix(0.952109,-0.28436,0.296257,0.991943,-131.723,-105.4)">
            <path d="M387.791,525.849C726.808,525.849 1002.05,557.433 1002.05,596.335C1002.05,635.236 726.808,666.82 387.791,666.82C48.774,666.82 -226.464,635.236 -226.464,596.335C-226.464,557.433 48.774,525.849 387.791,525.849ZM387.791,561.092C557.299,561.092 694.919,576.884 694.919,596.335C694.919,615.785 557.299,631.577 387.791,631.577C218.283,631.577 80.663,615.785 80.663,596.335C80.663,576.884 218.283,561.092 387.791,561.092Z" style="fill:rgb(237,219,219);"/>
        </g>
    </g>
    <g transform="matrix(0.15366,0.0936557,-0.0936557,0.15366,851.682,1365.72)">
        <g transform="matrix(1.13563,0,0,0.9333,-67.6044,-159.042)">
            <ellipse cx="404.407" cy="513.03" rx="270.438" ry="301.526" style="fill:rgb(53,99,104);stroke:rgb(199,91,91);stroke-width:136.92px;"/>
        </g>
        <g transform="matrix(0.952109,-0.28436,0.296257,0.991943,-131.723,-105.4)">
            <path d="M387.791,525.849C726.808,525.849 1002.05,557.433 1002.05,596.335C1002.05,635.236 726.808,666.82 387.791,666.82C48.774,666.82 -226.464,635.236 -226.464,596.335C-226.464,557.433 48.774,525.849 387.791,525.849ZM387.791,561.092C557.299,561.092 694.919,576.884 694.919,596.335C694.919,615.785 557.299,631.577 387.791,631.577C218.283,631.577 80.663,615.785 80.663,596.335C80.663,576.884 218.283,561.092 387.791,561.092Z" style="fill:rgb(53,99,104);"/>
        </g>
        <g transform="matrix(0.962484,0.246973,-0.257305,1.00275,194.362,-317.893)">
            <path d="M387.791,525.849C726.808,525.849 1002.05,557.433 1002.05,596.335C1002.05,635.236 726.808,666.82 387.791,666.82C48.774,666.82 -226.464,635.236 -226.464,596.335C-226.464,557.433 48.774,525.849 387.791,525.849ZM387.791,561.092C557.299,561.092 694.919,576.884 694.919,596.335C694.919,615.785 557.299,631.577 387.791,631.577C218.283,631.577 80.663,615.785 80.663,596.335C80.663,576.884 218.283,561.092 387.791,561.092Z" style="fill:rgb(53,99,104);"/>
        </g>
    </g>
    <g transform="matrix(0.410466,0.0487457,-0.0487457,0.410466,265.732,1044.59)">
        <g transform="matrix(1.13563,0,0,0.9333,-67.6044,-159.042)">
            <ellipse cx="404.407" cy="513.03" rx="270.438" ry="301.526" style="fill:rgb(104,53,53);stroke:rgb(199,91,91);stroke-width:59.61px;"/>
        </g>
        <g transform="matrix(0.952109,-0.28436,0.296257,0.991943,-131.723,-105.4)">
            <path d="M387.791,525.849C726.808,525.849 1002.05,557.433 1002.05,596.335C1002.05,635.236 726.808,666.82 387.791,666.82C48.774,666.82 -226.464,635.236 -226.464,596.335C-226.464,557.433 48.774,525.849 387.791,525.849ZM387.791,561.092C557.299,561.092 694.919,576.884 694.919,596.335C694.919,615.785 557.299,631.577 387.791,631.577C218.283,631.577 80.663,615.785 80.663,596.335C80.663,576.884 218.283,561.092 387.791,561.092Z" style="fill:rgb(104,53,53);"/>
        </g>
    </g>
    <g transform="matrix(-0.123608,0.399403,-0.399403,-0.123608,1265.27,-125.545)">
        <g transform="matrix(1.13563,0,0,0.9333,-67.6044,-159.042)">
            <ellipse cx="404.407" cy="513.03" rx="270.438" ry="301.526" style="fill:rgb(96,53,104);stroke:rgb(91,199,123);stroke-width:58.93px;"/>
        </g>
        <g transform="matrix(0.57858,-0.799462,0.838654,0.606943,-314.327,325.137)">
            <path d="M387.791,525.849C726.808,525.849 1002.05,557.433 1002.05,596.335C1002.05,635.236 726.808,666.82 387.791,666.82C48.774,666.82 -226.464,635.236 -226.464,596.335C-226.464,557.433 48.774,525.849 387.791,525.849ZM387.791,561.092C557.299,561.092 694.919,576.884 694.919,596.335C694.919,615.785 557.299,631.577 387.791,631.577C218.283,631.577 80.663,615.785 80.663,596.335C80.663,576.884 218.283,561.092 387.791,561.092Z" style="fill:rgb(96,53,104);"/>
        </g>
        <g transform="matrix(0.689185,0.706342,-0.740968,0.72297,584.765,-327.992)">
            <path d="M387.791,525.849C726.808,525.849 1002.05,557.433 1002.05,596.335C1002.05,635.236 726.808,666.82 387.791,666.82C48.774,666.82 -226.464,635.236 -226.464,596.335C-226.464,557.433 48.774,525.849 387.791,525.849ZM387.791,561.092C557.299,561.092 694.919,576.884 694.919,596.335C694.919,615.785 557.299,631.577 387.791,631.577C218.283,631.577 80.663,615.785 80.663,596.335C80.663,576.884 218.283,561.092 387.791,561.092Z" style="fill:rgb(96,53,104);"/>
        </g>
    </g>
    <g transform="matrix(0.410466,0.0487457,-0.0487457,0.410466,1393.06,-7.86598)">
        <g transform="matrix(1.13563,0,0,0.9333,-67.6044,-159.042)">
            <ellipse cx="404.407" cy="513.03" rx="270.438" ry="301.526" style="fill:rgb(75,104,53);stroke:rgb(199,91,91);stroke-width:59.61px;"/>
        </g>
        <g transform="matrix(0.952109,-0.28436,0.296257,0.991943,-131.723,-105.4)">
            <path d="M387.791,525.849C726.808,525.849 1002.05,557.433 1002.05,596.335C1002.05,635.236 726.808,666.82 387.791,666.82C48.774,666.82 -226.464,635.236 -226.464,596.335C-226.464,557.433 48.774,525.849 387.791,525.849ZM387.791,561.092C557.299,561.092 694.919,576.884 694.919,596.335C694.919,615.785 557.299,631.577 387.791,631.577C218.283,631.577 80.663,615.785 80.663,596.335C80.663,576.884 218.283,561.092 387.791,561.092Z" style="fill:rgb(75,104,53);"/>
        </g>
    </g>
    <g transform="matrix(0.952109,-0.28436,0.296257,0.991943,-131.723,-105.4)">
        <path d="M387.791,525.849C726.808,525.849 1002.05,557.433 1002.05,596.335C1002.05,635.236 726.808,666.82 387.791,666.82C48.774,666.82 -226.464,635.236 -226.464,596.335C-226.464,557.433 48.774,525.849 387.791,525.849ZM387.791,561.092C557.299,561.092 694.919,576.884 694.919,596.335C694.919,615.785 557.299,631.577 387.791,631.577C218.283,631.577 80.663,615.785 80.663,596.335C80.663,576.884 218.283,561.092 387.791,561.092Z" style="fill:rgb(255,221,0);"/>
    </g>
    <g transform="matrix(0.667595,-0.735996,0.766788,0.695525,-301.985,246.504)">
        <path d="M387.791,525.849C726.808,525.849 1002.05,557.433 1002.05,596.335C1002.05,635.236 726.808,666.82 387.791,666.82C48.774,666.82 -226.464,635.236 -226.464,596.335C-226.464,557.433 48.774,525.849 387.791,525.849ZM387.791,561.092C557.299,561.092 694.919,576.884 694.919,596.335C694.919,615.785 557.299,631.577 387.791,631.577C218.283,631.577 80.663,615.785 80.663,596.335C80.663,576.884 218.283,561.092 387.791,561.092Z" style="fill:rgb(255,221,0);"/>
    </g>
    <g transform="matrix(0.381548,0.368303,-0.524904,0.543781,687.809,208.027)">
        <path d="M411.018,797.633L423.469,831.137L463.763,831.137L431.165,851.843L443.616,885.346L411.018,864.64L378.42,885.346L390.872,851.843L358.274,831.137L398.567,831.137L411.018,797.633Z" style="fill:rgb(232,206,206);stroke:rgb(98,247,67);stroke-width:39.23px;"/>
    </g>
    <defs>
        <linearGradient id="_Linear1" x1="0" y1="0" x2="1" y2="0" gradientUnits="userSpaceOnUse" gradientTransform="matrix(336.747,-415.045,458.04,305.137,851.642,996.56)"><stop offset="0" style="stop-color:rgb(0,0,6);stop-opacity:1"/><stop offset="1" style="stop-color:rgb(21,20,138);stop-opacity:1"/></linearGradient>
    </defs>
</svg>
