<?xml version="1.0" encoding="UTF-8" standalone="no"?>
<!DOCTYPE svg PUBLIC "-//W3C//DTD SVG 1.1//EN" "http://www.w3.org/Graphics/SVG/1.1/DTD/svg11.dtd">
<svg width="100%" height="100%" viewBox="0 0 1024 1024" version="1.1" xmlns="http://www.w3.org/2000/svg" xmlns:xlink="http://www.w3.org/1999/xlink" xml:space="preserve" xmlns:serif="http://www.serif.com/" style="fill-rule:evenodd;clip-rule:evenodd;stroke-linecap:round;stroke-linejoin:round;stroke-miterlimit:1.5;">
    <g>
        <g>
            <g transform="matrix(1.52595,0,0,1.48243,-256.314,-166.428)">
                <path d="M823.855,370.994C823.855,292.507 761.95,228.785 685.7,228.785L326.804,228.785C250.554,228.785 188.65,292.507 188.65,370.994L188.65,655.414C188.65,733.902 250.554,797.624 326.804,797.624L685.7,797.624C761.95,797.624 823.855,733.902 823.855,655.414L823.855,370.994Z" style="fill:rgb(242,40,40);stroke:rgb(255,36,0);stroke-width:13.38px;"/>
            </g>
            <g transform="matrix(1.52595,0,0,1.48243,-256.314,-319.407)">
                <path d="M823.855,370.994C823.855,292.507 761.95,228.785 685.7,228.785L326.804,228.785C250.554,228.785 188.65,292.507 188.65,370.994L188.65,655.414C188.65,733.902 250.554,797.624 326.804,797.624L685.7,797.624C761.95,797.624 823.855,733.902 823.855,655.414L823.855,370.994Z" style="fill:rgb(182,43,43);stroke:rgb(255,36,0);stroke-width:13.38px;"/>
            </g>
            <path d="M78.535,649.859C78.365,650.021 78.196,650.183 78.026,650.345" style="fill:none;stroke:rgb(255,36,0);stroke-width:20.13px;"/>
            <path d="M84.827,689.079C36.186,715.185 173.966,833.449 175.503,810.635" style="fill:none;stroke:rgb(255,36,0);stroke-width:20.13px;"/>
            <path d="M975.694,399.402C975.694,363.988 946.943,335.237 911.529,335.237L122.708,335.237C87.295,335.237 58.544,363.988 58.544,399.402L58.544,527.732C58.544,563.145 87.295,591.896 122.708,591.896L911.529,591.896C946.943,591.896 975.694,563.145 975.694,527.732L975.694,399.402Z" style="fill:white;stroke:white;stroke-width:22.6px;"/>
            <g transform="matrix(1,0,0,0.258745,0,439.371)">
                <path d="M975.694,399.402C975.694,363.988 968.255,335.237 959.091,335.237L75.146,335.237C65.983,335.237 58.544,363.988 58.544,399.402L58.544,527.732C58.544,563.145 65.983,591.896 75.146,591.896L959.091,591.896C968.255,591.896 975.694,563.145 975.694,527.732L975.694,399.402Z" style="fill:rgb(0,39,255);stroke:rgb(0,39,255);stroke-width:30.94px;"/>
            </g>
            <g transform="matrix(1,0,0,0.258745,0,247.246)">
                <path d="M975.694,399.402C975.694,363.988 968.255,335.237 959.091,335.237L75.146,335.237C65.983,335.237 58.544,363.988 58.544,399.402L58.544,527.732C58.544,563.145 65.983,591.896 75.146,591.896L959.091,591.896C968.255,591.896 975.694,563.145 975.694,527.732L975.694,399.402Z" style="fill:rgb(0,39,255);stroke:rgb(0,39,255);stroke-width:30.94px;"/>
            </g>
            <g transform="matrix(1.53526,0,0,1.33115,-419.244,-176.84)">
                <path d="M602.872,229.389L667.477,398.971L876.54,398.971L707.404,503.779L772.008,673.361L602.872,568.554L433.737,673.361L498.341,503.779L329.205,398.971L538.268,398.971L602.872,229.389Z" style="fill:rgb(182,43,43);stroke:rgb(255,36,0);stroke-width:14.01px;"/>
            </g>
            <g transform="matrix(1.06871,0,0,1.04512,-41.1779,-45.8454)">
                <path d="M273.086,752.657C292.495,742.953 440.587,662.783 515.317,618.463" style="fill:rgb(157,157,157);stroke:rgb(140,54,40);stroke-width:19.05px;"/>
            </g>
            <g transform="matrix(1.06871,0,0,-1.04512,215.446,1387.14)">
                <path d="M273.086,752.657C292.495,742.953 440.587,662.783 515.317,618.463" style="fill:rgb(157,157,157);stroke:rgb(140,54,40);stroke-width:19.05px;"/>
            </g>
            <g transform="matrix(-0.958544,0.0293962,0.0332224,1.00312,553.64,-259.831)">
                <path d="M273.086,752.657C292.495,742.953 440.587,662.783 515.317,618.463" style="fill:rgb(157,157,157);stroke:rgb(140,54,40);stroke-width:20.53px;"/>
            </g>
            <path d="M691.477,64.235C689.871,63.833 706.081,62.616 711.648,62.616C725.211,62.616 761.983,60.205 761.983,65.577" style="fill:none;stroke:rgb(255,36,0);stroke-width:20.13px;"/>
            <path d="M833.737,66.005C832.623,65.318 833.315,65.577 831.563,65.577" style="fill:none;stroke:rgb(255,36,0);stroke-width:20.13px;"/>
        </g>
        <path d="M621.601,594.627C621.257,594.176 628.857,597.128 630.592,598.284C632.742,599.717 652.596,609.641 653.527,608.709C654.506,607.731 652.74,606.092 652.485,605.582C646.457,593.526 633.72,570.47 633.72,558.669" style="fill:none;stroke:rgb(255,36,0);stroke-width:20.33px;"/>
        <path d="M618.441,522.988C617.792,523.415 618.082,522.714 618.082,522.181" style="fill:none;stroke:rgb(255,36,0);stroke-width:20.33px;"/>
        <path d="M516.763,237.43C520.16,239.977 551.362,307.4 551.362,313.68" style="fill:none;stroke:rgb(255,36,0);stroke-width:20.33px;"/>
        <path d="M565.989,355.03C565.979,355.147 565.968,355.263 565.957,355.38" style="fill:none;stroke:rgb(255,36,0);stroke-width:20.33px;"/>
        <path d="M320.023,631.449C319.072,633.35 320.507,626.893 322.01,625.39C323.589,623.811 325.947,620.876 327.223,617.049C330.034,608.615 335.116,593.519 340.775,587.859" style="fill:none;stroke:rgb(255,36,0);stroke-width:20.33px;"/>
        <path d="M302.039,661.185C302.094,661.068 302.148,660.952 302.202,660.835" style="fill:none;stroke:rgb(255,36,0);stroke-width:20.33px;"/>
    </g>
</svg>
