<?xml version="1.0" encoding="UTF-8" standalone="no"?>
<!DOCTYPE svg PUBLIC "-//W3C//DTD SVG 1.1//EN" "http://www.w3.org/Graphics/SVG/1.1/DTD/svg11.dtd">
<svg width="100%" height="100%" viewBox="0 0 1024 1024" version="1.1" xmlns="http://www.w3.org/2000/svg" xmlns:xlink="http://www.w3.org/1999/xlink" xml:space="preserve" xmlns:serif="http://www.serif.com/" style="fill-rule:evenodd;clip-rule:evenodd;stroke-linecap:round;stroke-linejoin:round;stroke-miterlimit:1.5;">
    <g>
        <g transform="matrix(1.52595,0,0,1.48243,-256.314,-166.428)">
            <path d="M823.855,370.994C823.855,292.507 761.95,228.785 685.7,228.785L326.804,228.785C250.554,228.785 188.65,292.507 188.65,370.994L188.65,655.414C188.65,733.902 250.554,797.624 326.804,797.624L685.7,797.624C761.95,797.624 823.855,733.902 823.855,655.414L823.855,370.994Z" style="fill:rgb(128,128,128);stroke:rgb(128,128,128);stroke-width:13.38px;"/>
        </g>
        <g transform="matrix(1.52595,0,0,1.48243,-256.314,-319.407)">
            <path d="M823.855,370.994C823.855,292.507 761.95,228.785 685.7,228.785L326.804,228.785C250.554,228.785 188.65,292.507 188.65,370.994L188.65,655.414C188.65,733.902 250.554,797.624 326.804,797.624L685.7,797.624C761.95,797.624 823.855,733.902 823.855,655.414L823.855,370.994Z" style="fill:rgb(32,32,32);stroke:rgb(128,128,128);stroke-width:13.38px;"/>
        </g>
        <path d="M78.535,649.859C78.365,650.021 78.196,650.183 78.026,650.345" style="fill:none;stroke:rgb(128,128,128);stroke-width:20.13px;"/>
        <path d="M84.827,689.079C36.186,715.185 173.966,833.449 175.503,810.635" style="fill:none;stroke:rgb(128,128,128);stroke-width:20.13px;"/>
        <path d="M691.477,64.235C689.871,63.833 706.081,62.616 711.648,62.616C725.211,62.616 761.983,60.205 761.983,65.577" style="fill:none;stroke:rgb(128,128,128);stroke-width:20.13px;"/>
        <path d="M833.737,66.005C832.623,65.318 833.315,65.577 831.563,65.577" style="fill:none;stroke:rgb(128,128,128);stroke-width:20.13px;"/>
        <g transform="matrix(1.57784,0,0,1.35521,-309.779,-238.796)">
            <path d="M530.079,264.523C522.776,264.151 515.461,264.151 508.158,264.523L502.662,274.794C494.73,275.427 486.838,276.519 479.021,278.063L471.181,269.637C464.036,271.264 456.97,273.253 450.008,275.597L447.229,287.012C439.724,289.781 432.369,292.981 425.199,296.598L415.55,290.591C409.049,294.104 402.714,297.947 396.567,302.104L396.695,313.886C390.128,318.601 383.812,323.691 377.777,329.135L366.978,325.955C361.564,331.117 356.391,336.551 351.477,342.238L354.504,353.583C349.322,359.923 344.476,366.557 339.988,373.456L328.773,373.321C324.815,379.779 321.157,386.434 317.813,393.264L323.531,403.399C320.088,410.932 317.042,418.658 314.406,426.542L303.54,429.461C301.308,436.775 299.415,444.198 297.867,451.704L305.887,459.939C304.417,468.151 303.378,476.442 302.775,484.774L292.998,490.548C292.644,498.219 292.644,505.904 292.998,513.575L302.775,519.35C303.378,527.682 304.417,535.972 305.887,544.184L297.867,552.42C299.415,559.926 301.308,567.349 303.54,574.663L314.406,577.582C317.042,585.466 320.088,593.192 323.531,600.724L317.813,610.86C321.157,617.689 324.815,624.345 328.773,630.802L339.988,630.668C344.476,637.566 349.322,644.201 354.504,650.54L351.477,661.885C356.391,667.573 361.564,673.007 366.978,678.168L377.777,674.989C383.812,680.432 390.128,685.523 396.695,690.238L396.567,702.019C402.714,706.177 409.049,710.019 415.55,713.533L425.199,707.526C432.369,711.143 439.724,714.343 447.229,717.112L450.008,728.526C456.97,730.871 464.036,732.86 471.181,734.486L479.021,726.06C486.838,727.605 494.73,728.696 502.662,729.33L508.158,739.6C515.461,739.972 522.776,739.972 530.079,739.6L535.576,729.33C543.507,728.696 551.399,727.605 559.217,726.06L567.056,734.486C574.202,732.86 581.268,730.871 588.23,728.526L591.009,717.112C598.514,714.343 605.868,711.143 613.039,707.526L622.687,713.533C629.188,710.019 635.524,706.177 641.671,702.019L641.543,690.238C648.11,685.523 654.425,680.432 660.46,674.989L671.26,678.168C676.674,673.007 681.847,667.573 686.76,661.885L683.734,650.54C688.915,644.201 693.761,637.566 698.249,630.668L709.465,630.802C713.422,624.345 717.08,617.689 720.425,610.86L714.706,600.724C718.149,593.192 721.196,585.466 723.831,577.582L734.697,574.663C736.929,567.349 738.823,559.926 740.371,552.42L732.35,544.184C733.82,535.972 734.859,527.682 735.462,519.35L745.239,513.575C745.593,505.904 745.593,498.219 745.239,490.548L735.462,484.774C734.859,476.442 733.82,468.151 732.35,459.939L740.371,451.704C738.823,444.198 736.929,436.775 734.697,429.461L723.831,426.542C721.196,418.658 718.149,410.932 714.706,403.399L720.425,393.264C717.08,386.434 713.422,379.779 709.465,373.321L698.249,373.456C693.761,366.557 688.915,359.923 683.734,353.583L686.76,342.238C681.847,336.551 676.674,331.117 671.26,325.955L660.46,329.135C654.425,323.691 648.11,318.601 641.543,313.886L641.671,302.104C635.524,297.947 629.188,294.104 622.687,290.591L613.039,296.598C605.868,292.981 598.514,289.781 591.009,287.012L588.23,275.597C581.268,273.253 574.202,271.264 567.056,269.637L559.217,278.063C551.399,276.519 543.507,275.427 535.576,274.794L530.079,264.523ZM519.119,326.021C611.608,326.021 686.697,404.902 686.697,502.062C686.697,599.221 611.608,678.103 519.119,678.103C426.63,678.103 351.54,599.221 351.54,502.062C351.54,404.902 426.63,326.021 519.119,326.021Z" style="stroke:rgb(128,128,128);stroke-width:13.82px;"/>
        </g>
        <g transform="matrix(1.87306,0,0,1.76672,-498.134,-398.958)">
            <path d="M594.638,359.324L635.304,387.104L576.213,463.577L671.825,492.787L656.292,537.736L560.68,508.526L560.68,603.051L510.413,603.051L510.413,508.526L414.801,537.736L399.268,492.787L494.88,463.577L435.789,387.104L476.455,359.324L535.547,435.796L594.638,359.324Z" style="stroke:rgb(128,128,128);stroke-width:11.17px;"/>
        </g>
        <g transform="matrix(1.82923,0,0,1.76051,-417.312,-380.74)">
            <path d="M504.407,437.673C520.095,437.673 532.832,449.455 532.832,463.968C532.832,478.481 520.095,490.264 504.407,490.264C488.719,490.264 475.982,478.481 475.982,463.968C475.982,449.455 488.719,437.673 504.407,437.673ZM504.407,450.82C512.251,450.82 518.619,456.712 518.619,463.968C518.619,471.225 512.251,477.116 504.407,477.116C496.563,477.116 490.195,471.225 490.195,463.968C490.195,456.712 496.563,450.82 504.407,450.82Z" style="fill:none;stroke:rgb(128,128,128);stroke-width:4.42px;"/>
        </g>
    </g>
</svg>
